<?xml version="1.0" encoding="utf-8"?>
<!-- Generator: Adobe Illustrator 23.0.2, SVG Export Plug-In . SVG Version: 6.00 Build 0)  -->
<svg version="1.1" id="Layer_1" xmlns="http://www.w3.org/2000/svg" xmlns:xlink="http://www.w3.org/1999/xlink" x="0px" y="0px"
	 viewBox="0 0 1920 1080" style="enable-background:new 0 0 1920 1080;" xml:space="preserve">
<style type="text/css">
	.st0{clip-path:url(#SVGID_2_);}
	.st1{fill:#FCFCFC;}
	.st2{fill:#F4F4F4;}
	.st3{fill:#F8EDD9;}
</style>
<g>
	<defs>
		<rect id="SVGID_1_" width="1920" height="1080"/>
	</defs>
	<clipPath id="SVGID_2_">
		<use xlink:href="#SVGID_1_"  style="overflow:visible;"/>
	</clipPath>
	<g class="st0">
		<g>
			<rect class="st1" width="1920" height="1080"/>
		</g>
		<g>
			<path class="st2" d="M177.4-117.5l2.9,2.9l-36.7,29.5L36.9-156.1l2.5-3.8l5.2,3.5c5.8,3.9,11.3,4.8,16.3,2.6
				c2.9-1.2,6.9-5.8,12.1-13.6l59.2-88.9c5.7-8.6,8.4-14.6,7.9-18c-0.7-4.7-3.6-8.8-8.8-12.3l-5.2-3.5l2.5-3.8l62.4,41.6l-2.5,3.8
				c-7.3-4.9-12.9-7.7-16.7-8.2s-7.1-0.1-9.6,1.4c-2.5,1.4-6.5,6.3-12,14.5l-57.7,86.6c-3.7,5.6-5.8,9.8-6.1,12.7
				c-0.1,2,0.4,3.8,1.7,5.7c1.2,1.8,6.3,5.7,15.2,11.6l10.1,6.7c10.6,7,18.5,11.2,23.8,12.5c5.3,1.3,11,1.1,17.2-0.5
				C160.5-107.4,168.2-111.3,177.4-117.5z"/>
			<path class="st2" d="M275.6-135.4c14.1,9.4,21.8,22.3,23.2,38.7c1.2,14-2.2,26.9-10.1,38.7c-5.5,8.3-13.2,15.4-22.8,21.3
				c-9.7,5.9-19.5,8.6-29.4,8.3c-9.9-0.3-19.1-3.4-27.7-9.1c-14-9.3-21.4-22.4-22.3-39c-0.7-14.1,2.8-26.9,10.7-38.7
				c5.7-8.5,13.5-15.6,23.3-21.2c9.8-5.6,19.6-8.1,29.2-7.6C259.3-143.4,267.9-140.5,275.6-135.4z M268.1-130.9
				c-3.6-2.4-7.9-3.7-13-4c-5-0.3-10.5,1.5-16.3,5.4c-5.8,3.9-11.5,10-17.1,18.4c-9,13.5-14.1,27-15.3,40.4
				c-1.2,13.4,2.7,23,11.5,28.9c6.6,4.4,13.8,5.3,21.7,2.7c7.9-2.6,16.2-10.5,25-23.7c11-16.5,16.1-31.9,15.3-46.1
				C279.5-118.6,275.5-125.9,268.1-130.9z"/>
			<path class="st2" d="M361.4-78.3l-13.9,20.9c17.1-8.8,29.7-10.4,37.9-5c3.7,2.5,6.1,5.7,7,9.6c0.9,3.9,0.4,7.3-1.6,10.3
				c-1.8,2.6-4.1,4.3-7.1,4.9c-3,0.7-5.7,0.2-8.1-1.5c-2.4-1.6-4.3-4.5-5.6-8.8c-1.4-4.3-2.8-6.9-4.2-7.9c-1.2-0.8-3-1-5.3-0.6
				c-4.9,0.7-11.1,3.2-18.6,7.4L312-4.2c-3.4,5.1-5.4,9.5-5.9,13c-0.3,2.4,0.2,5,1.6,7.7s4.2,5.5,8.4,8.3l-2.4,3.7L266.2-3.4
				l2.4-3.7c4.7,3.2,8.8,4.8,12.1,4.8c2.4,0,4.7-0.9,7-2.8c1.1-0.9,3.5-4.1,7.1-9.5l24-36.1C326-61.4,330.1-68,331-70.4
				c0.9-2.4,1.1-4.4,0.6-6.1c-0.6-1.7-1.7-3.2-3.5-4.4c-2.1-1.4-4.8-2.5-8.1-3.2l1.4-4.3l35.7,7.4L361.4-78.3z"/>
			<path class="st2" d="M393.9-2c-9.3,13.8-13.1,26.8-11.6,39.2c1.5,12.4,6.9,21.6,16,27.7c6.1,4.1,12.5,5.9,19.2,5.6
				c6.7-0.4,14.3-3.6,22.8-9.7l1.8,4.1c-7.6,8.3-17.4,14-29.3,17.1c-11.9,3.1-23,1.2-33.3-5.7c-11.2-7.4-17.8-18.2-20-32.2
				c-2.2-14,1.7-28.4,11.4-43.1c10.6-15.9,23-25.6,37-29.1c14.1-3.5,27.3-1.1,39.6,7.1c10.4,6.9,16.7,16.1,18.8,27.4
				c2.1,11.3-0.6,22.8-8.3,34.3L393.9-2z M397.8-7.9l43.1,28.7c3.6-6.2,5.7-10.9,6.3-14c0.8-4.9,0.3-9.6-1.6-14
				c-1.9-4.4-4.7-7.8-8.3-10.3c-5.6-3.7-12.1-4.9-19.5-3.5C410.4-19.6,403.8-15.2,397.8-7.9z"/>
			<path class="st2" d="M510.2,49.5c11.3-2.3,17.9-3.5,19.8-3.7c4.8-0.5,9.4-0.4,13.8,0.6c4.5,0.9,8.4,2.5,11.9,4.8
				c5.8,3.9,9.7,8.9,11.7,15.1c1.9,6.2,1.5,13-1.4,20.3c12.4-3.5,21.8-4.9,28.3-4.2c6.5,0.7,12.3,2.7,17.4,6.1
				c4.9,3.3,8.5,7.5,10.6,12.6c2.1,5.1,2.4,11.3,0.8,18.5c-1.1,4.9-4.5,11.6-10.1,20l-26.7,40c-3.9,5.8-6.1,10.1-6.7,12.9
				c-0.3,1.9,0.1,4,1.2,6.3c1.1,2.3,3.8,4.8,7.9,7.5l-2.4,3.7l-45.9-30.6l2.4-3.7l1.9,1.3c4,2.7,7.6,4,10.9,3.9c2.3,0,4.5-1,6.8-2.9
				c1-1,3.4-4.2,7-9.6l26.7-40c5.1-7.6,7.7-13.5,7.9-17.9c0.2-6.1-2.5-11.1-8.4-15c-3.6-2.4-7.8-3.9-12.6-4.5
				c-4.8-0.6-11.4-0.2-19.8,1.2l-0.9,1l-2.7,4.5l-29.6,44.4c-4.2,6.4-6.5,10.6-6.9,12.6c-0.3,2,0.1,4.2,1.4,6.6
				c1.3,2.4,4.3,5.1,9,8.3l-2.4,3.7l-47-31.3l2.4-3.7c5.1,3.4,9.1,5.2,11.8,5.2c2.7,0.1,5.3-0.9,7.7-2.8c1.1-0.9,3.5-4.2,7.2-9.7
				l26.7-40c5.1-7.6,7.6-13.8,7.5-18.6c-0.1-6.3-2.8-11.3-8.2-14.8c-3.7-2.4-7.9-3.9-12.8-4.3c-7.6-0.8-14.2-0.3-19.7,1.4
				l-33.2,49.9c-4.1,6.1-6.3,10.3-6.6,12.7c-0.4,2.4,0,4.6,1,6.6c1,2,4.1,4.7,9.2,8.1l-2.4,3.7l-46-30.7l2.4-3.7
				c4.3,2.8,7.6,4.4,9.9,4.6c2.3,0.2,4.6-0.4,6.8-1.8c2.2-1.4,5.2-5,9.1-10.8l23.7-35.6c6.8-10.2,10.9-17,12.3-20.4
				c1-2.6,1.3-4.6,0.8-6.1c-0.5-1.5-1.6-2.9-3.3-4c-1.9-1.3-4.5-2.3-7.8-3l0.9-4.7l35.6,7.3l4.4,2.9L510.2,49.5z"/>
			<path class="st2" d="M741.7,175.1l-49.8,74.8c-3.9,5.8-6,10-6.5,12.5c-0.4,2.5-0.1,4.8,0.9,6.8c1,2.1,3.7,4.5,8.1,7.5l-2.4,3.7
				l-45.2-30.1l2.4-3.7c4.5,3,7.9,4.6,10,4.8c2.1,0.2,4.4-0.5,6.6-1.9c2.3-1.4,5.3-5,9.2-10.8l23.9-35.9
				c6.7-10.1,10.8-16.8,12.1-20.2c1-2.5,1.2-4.5,0.8-6c-0.5-1.5-1.6-2.9-3.3-4c-1.9-1.3-4.5-2.3-7.9-3.1l1-4.6l35.6,7.3L741.7,175.1
				z M765.7,120.9c2.8,1.9,4.6,4.5,5.3,7.8c0.7,3.3,0.1,6.4-1.8,9.3s-4.5,4.6-7.9,5.3c-3.4,0.7-6.4,0.1-9.3-1.8
				c-2.8-1.9-4.6-4.5-5.3-7.9s-0.1-6.5,1.8-9.3c1.9-2.8,4.5-4.6,7.8-5.3C759.7,118.3,762.8,118.9,765.7,120.9z"/>
			<path class="st3" d="M752.8,199.8l36.4,7.5l3.9,2.6l-14.5,21.7c10.3-5,18.9-7.5,25.9-7.6c7-0.1,13.2,1.7,18.6,5.3
				c9.3,6.2,14.7,15.1,16.1,26.5c1.7,14-2.2,28.2-11.8,42.6c-10.7,16.1-24.1,26.3-40.3,30.6c-13.3,3.5-25.7,1.5-37.2-6.2
				c-5-3.3-8.9-6.9-11.6-10.8c-2-2.8-3.7-6.9-5.1-12.2l-18.9,28.3c-4.2,6.4-6.5,10.7-6.9,12.9c-0.4,2.2,0.1,4.5,1.3,6.8
				c1.3,2.3,4.4,5.1,9.5,8.5l-2.5,3.8l-48.8-32.5l2.5-3.8l2.5,1.7c3.7,2.5,7.3,4,11,4.2c1.8,0.1,3.6-0.4,5.4-1.6
				c1.8-1.2,5-5.2,9.5-11.9l58.6-88c4-6,6.3-10,6.8-12c0.5-2,0.5-3.8-0.2-5.4c-0.6-1.6-2-3.1-4-4.4c-1.6-1.1-4-2-7.1-2.7
				L752.8,199.8z M774.5,237.6l-23.1,34.7c-5,7.5-8,12.7-9,15.4c-1.7,4.6-1.7,9.6,0.1,15c1.7,5.4,5.4,10,11,13.8
				c6.8,4.5,14,5.5,21.7,3c10.1-3.3,19.3-11.1,27.7-23.7c9.5-14.2,13.6-27.2,12.5-39c-0.8-8.2-4.2-14.2-10.2-18.2
				c-3.3-2.2-7-3.5-11.3-4C790.6,234.3,784.2,235.3,774.5,237.6z"/>
			<path class="st2" d="M931.6,301.6l-21.1,31.7l-3.4-2.2c4.1-11.7,5.3-20.6,3.6-26.9c-1.6-6.3-5.6-11.5-11.8-15.6
				c-4.7-3.2-9.4-4.5-14-3.9c-4.6,0.6-7.9,2.4-9.9,5.4c-2.5,3.8-3.6,7.8-3.2,11.9c0.2,4.2,2.6,10,6.9,17.4l10,17.1
				c9.3,15.9,10.3,29.3,3,40.3c-5.6,8.5-13.4,13.2-23.2,14.1c-9.9,0.9-18.7-1.3-26.7-6.5c-5.7-3.8-11.5-9.1-17.5-16
				c-1.8-2.2-3.4-3.7-4.8-4.7c-1.6-1-3.4-1-5.4,0.2l-3.4-2.2l22.1-33.2l3.4,2.2c-4.4,10.7-5.6,20.3-3.4,28.7
				c2.1,8.4,6.5,14.8,13.2,19.2c4.7,3.1,9.4,4.3,14.2,3.5c4.8-0.8,8.4-3.1,11-7c3.1-4.7,4.1-9.7,2.9-15.1c-1.2-5.4-5-13.8-11.6-25.2
				c-6.6-11.4-10.1-20.1-10.5-26.1c-0.5-5.9,1.2-11.8,5.2-17.7c5.1-7.7,12-12.3,20.7-14c8.7-1.7,17.2,0.3,25.5,5.8
				c3.7,2.4,7.6,6.2,11.8,11.2c2.8,3.3,4.7,5.4,5.9,6.1c1.1,0.7,2.1,1,3,1c0.9-0.1,2.3-0.6,4.2-1.7L931.6,301.6z"/>
			<path class="st2" d="M1032.2,372.6L994.6,429c-7.2,10.8-11.3,17.5-12.4,20.3c-1.1,2.7-1.4,5-0.9,6.7c0.5,1.7,1.5,3,3,4
				c2.1,1.4,4.9,2.4,8.3,3l-0.9,4.5l-35.5-7.1l-4.6-3l13.1-19.7c-13.8,3.3-23.5,4.7-29.2,4.2c-5.7-0.6-10.9-2.4-15.5-5.5
				c-5.2-3.5-8.7-8-10.5-13.6c-1.8-5.6-1.9-11.2-0.2-16.9c1.7-5.7,5.4-12.9,11.2-21.6l27.7-41.5c2.9-4.4,4.5-7.8,4.7-10.1
				c0.2-2.3-0.4-4.6-1.6-6.7c-1.3-2.2-4.3-4.8-9.3-8l2.5-3.8l32.6,21.7l-41.5,62.3c-5.8,8.7-8.1,15.4-6.8,20.1
				c1.2,4.7,3.9,8.5,8.2,11.3c2.9,1.9,6.8,3.2,11.7,3.9s11.6,0.1,20.1-1.7l35.1-52.7c3.5-5.3,4.9-9.5,4.2-12.6c-0.7-3.1-4-6.8-10-11
				l2.5-3.8L1032.2,372.6z"/>
			<path class="st2" d="M1070.9,423c11.3-2.3,17.9-3.5,19.8-3.7c4.8-0.5,9.4-0.4,13.8,0.6c4.5,0.9,8.4,2.5,11.9,4.8
				c5.8,3.9,9.7,8.9,11.7,15.1c1.9,6.2,1.5,13-1.4,20.3c12.4-3.5,21.8-4.9,28.3-4.2c6.5,0.7,12.3,2.7,17.4,6.1
				c4.9,3.3,8.5,7.5,10.6,12.6c2.1,5.1,2.4,11.3,0.8,18.5c-1.1,4.9-4.5,11.6-10.1,20l-26.7,40c-3.9,5.8-6.1,10.1-6.7,12.9
				c-0.3,1.9,0.1,4,1.2,6.3c1.1,2.3,3.8,4.8,7.9,7.5l-2.4,3.7l-45.9-30.6l2.4-3.7l1.9,1.3c4,2.7,7.6,4,10.9,3.9c2.3,0,4.5-1,6.8-2.9
				c1-1,3.4-4.2,7-9.6l26.7-40c5.1-7.6,7.7-13.5,8-17.9c0.2-6.1-2.5-11.1-8.4-15c-3.6-2.4-7.8-3.9-12.6-4.5
				c-4.8-0.6-11.4-0.2-19.8,1.2l-0.9,1l-2.7,4.5l-29.6,44.4c-4.2,6.4-6.5,10.6-6.9,12.6c-0.3,2,0.1,4.2,1.4,6.6
				c1.3,2.4,4.3,5.1,9,8.3l-2.4,3.7l-47-31.3l2.4-3.7c5.1,3.4,9.1,5.2,11.8,5.2c2.7,0.1,5.3-0.9,7.7-2.8c1.1-0.9,3.5-4.2,7.2-9.7
				l26.7-40c5.1-7.6,7.6-13.8,7.5-18.6c-0.1-6.3-2.8-11.3-8.2-14.8c-3.7-2.4-7.9-3.9-12.8-4.3c-7.6-0.8-14.2-0.3-19.7,1.4
				l-33.2,49.9c-4.1,6.1-6.3,10.3-6.6,12.7c-0.4,2.4,0,4.6,1,6.6c1,2,4.1,4.7,9.2,8.1l-2.4,3.7l-46-30.7l2.4-3.7
				c4.3,2.8,7.6,4.4,9.9,4.6c2.3,0.2,4.6-0.4,6.8-1.8c2.2-1.4,5.2-5,9.1-10.8l23.7-35.6c6.8-10.2,10.9-17,12.3-20.4
				c1-2.6,1.3-4.6,0.8-6.1c-0.5-1.5-1.6-2.9-3.3-4c-1.9-1.3-4.5-2.3-7.8-3l0.9-4.7l35.6,7.3l4.4,2.9L1070.9,423z"/>
			<path class="st2" d="M1344.6,660.1l2.9,2.9l-36.7,29.5l-106.7-71.1l2.5-3.8l5.2,3.5c5.8,3.9,11.3,4.8,16.3,2.6
				c2.9-1.2,6.9-5.8,12.1-13.6l59.2-88.9c5.7-8.6,8.4-14.6,7.9-18c-0.7-4.7-3.6-8.8-8.8-12.3l-5.2-3.5l2.5-3.8l62.4,41.6l-2.5,3.8
				c-7.3-4.9-12.9-7.7-16.7-8.2c-3.9-0.5-7.1-0.1-9.6,1.4c-2.5,1.4-6.5,6.3-12,14.5l-57.7,86.6c-3.7,5.6-5.8,9.8-6.1,12.7
				c-0.1,2,0.4,3.8,1.7,5.7c1.2,1.8,6.3,5.7,15.2,11.6l10.1,6.7c10.6,7,18.5,11.2,23.8,12.5c5.3,1.3,11,1.1,17.2-0.5
				C1327.7,670.2,1335.4,666.3,1344.6,660.1z"/>
			<path class="st2" d="M1442.9,642.3c14.1,9.4,21.8,22.3,23.2,38.7c1.2,14-2.2,26.9-10.1,38.7c-5.5,8.3-13.2,15.4-22.8,21.3
				c-9.7,5.9-19.5,8.6-29.4,8.3c-9.9-0.3-19.1-3.4-27.7-9.1c-14-9.3-21.4-22.3-22.3-39c-0.7-14.1,2.8-26.9,10.7-38.7
				c5.7-8.5,13.5-15.6,23.3-21.2c9.8-5.6,19.6-8.1,29.2-7.6C1426.5,634.3,1435.2,637.1,1442.9,642.3z M1435.4,646.8
				c-3.6-2.4-7.9-3.7-13-4c-5-0.3-10.5,1.5-16.3,5.4c-5.8,3.9-11.5,10-17.1,18.4c-9,13.5-14.1,27-15.3,40.4
				c-1.2,13.4,2.7,23,11.5,28.9c6.6,4.4,13.8,5.3,21.7,2.7c7.9-2.6,16.2-10.5,25-23.7c11-16.5,16.1-31.9,15.3-46.1
				C1446.8,659.1,1442.8,651.7,1435.4,646.8z"/>
			<path class="st2" d="M1528.7,699.4l-13.9,20.9c17.1-8.8,29.7-10.4,37.9-5c3.7,2.5,6.1,5.7,7,9.6c0.9,3.9,0.4,7.3-1.6,10.3
				c-1.8,2.6-4.1,4.3-7.1,4.9c-3,0.7-5.7,0.2-8.1-1.5c-2.4-1.6-4.3-4.5-5.6-8.8c-1.4-4.3-2.8-6.9-4.2-7.9c-1.2-0.8-3-1-5.3-0.6
				c-4.9,0.7-11.1,3.2-18.6,7.4l-29.7,44.6c-3.4,5.1-5.4,9.5-5.9,13c-0.3,2.4,0.2,5,1.6,7.7c1.4,2.7,4.2,5.5,8.4,8.3l-2.4,3.7
				l-47.6-31.7l2.4-3.7c4.7,3.2,8.8,4.8,12.1,4.8c2.4,0,4.7-0.9,7-2.8c1.1-0.9,3.5-4.1,7.1-9.5l24-36.1
				c7.2-10.8,11.3-17.4,12.2-19.8c0.9-2.4,1.1-4.4,0.6-6.1c-0.6-1.7-1.7-3.2-3.5-4.4c-2.1-1.4-4.8-2.5-8.1-3.2l1.4-4.3l35.7,7.4
				L1528.7,699.4z"/>
			<path class="st2" d="M1561.2,775.6c-9.3,13.8-13.1,26.8-11.6,39.2c1.5,12.4,6.9,21.6,16,27.7c6.1,4.1,12.5,5.9,19.2,5.6
				c6.7-0.4,14.3-3.6,22.8-9.7l1.8,4.1c-7.6,8.3-17.4,14-29.3,17.1c-11.9,3.1-23,1.2-33.3-5.7c-11.2-7.4-17.8-18.2-20-32.2
				c-2.2-14,1.7-28.4,11.4-43.1c10.6-15.9,23-25.6,37-29.1c14.1-3.5,27.3-1.1,39.6,7.1c10.4,6.9,16.7,16.1,18.8,27.4
				c2.1,11.3-0.6,22.8-8.3,34.3L1561.2,775.6z M1565.1,769.7l43.1,28.7c3.6-6.2,5.7-10.9,6.3-14c0.8-4.9,0.3-9.6-1.6-14
				c-1.9-4.4-4.7-7.8-8.3-10.3c-5.6-3.7-12.1-4.9-19.5-3.5C1577.7,758.1,1571,762.5,1565.1,769.7z"/>
			<path class="st2" d="M1677.5,827.2c11.3-2.3,17.9-3.5,19.8-3.7c4.8-0.5,9.4-0.4,13.8,0.6c4.5,0.9,8.4,2.5,11.9,4.8
				c5.8,3.9,9.7,8.9,11.7,15.1c1.9,6.2,1.5,13-1.4,20.3c12.4-3.5,21.8-4.9,28.3-4.2c6.5,0.7,12.3,2.7,17.4,6.1
				c4.9,3.3,8.5,7.5,10.6,12.6c2.1,5.1,2.4,11.3,0.8,18.5c-1.1,4.9-4.5,11.6-10.1,20l-26.7,40c-3.9,5.8-6.1,10.1-6.7,12.9
				c-0.3,1.9,0.1,4,1.2,6.3c1.1,2.3,3.8,4.8,7.9,7.5l-2.4,3.7l-45.9-30.6l2.4-3.7l1.9,1.3c4,2.7,7.6,4,10.9,3.9c2.3,0,4.5-1,6.8-2.9
				c1-1,3.4-4.2,7-9.6l26.7-40c5.1-7.6,7.7-13.5,8-17.9c0.2-6.1-2.5-11.1-8.4-15c-3.6-2.4-7.8-3.9-12.6-4.5
				c-4.8-0.6-11.4-0.2-19.8,1.2l-0.9,1l-2.7,4.5l-29.6,44.4c-4.2,6.4-6.5,10.6-6.9,12.6c-0.3,2,0.1,4.2,1.4,6.6
				c1.3,2.4,4.3,5.1,9,8.3l-2.4,3.7l-47-31.3l2.4-3.7c5.1,3.4,9.1,5.2,11.8,5.2c2.7,0.1,5.3-0.9,7.7-2.8c1.1-0.9,3.5-4.2,7.2-9.7
				l26.7-40c5.1-7.6,7.6-13.8,7.5-18.6c-0.1-6.3-2.8-11.3-8.2-14.8c-3.7-2.4-7.9-3.9-12.8-4.3c-7.6-0.8-14.2-0.3-19.7,1.4
				l-33.2,49.9c-4.1,6.1-6.3,10.3-6.6,12.7c-0.4,2.4,0,4.6,1,6.6c1,2,4.1,4.7,9.2,8.1l-2.4,3.7l-46-30.7l2.4-3.7
				c4.3,2.8,7.6,4.4,9.9,4.6c2.3,0.2,4.6-0.4,6.8-1.8c2.2-1.4,5.2-5,9.1-10.8l23.7-35.6c6.8-10.2,10.9-17,12.3-20.4
				c1-2.6,1.3-4.6,0.8-6.1c-0.5-1.5-1.6-2.9-3.3-4c-1.9-1.3-4.5-2.3-7.8-3l0.9-4.7l35.6,7.3l4.4,2.9L1677.5,827.2z"/>
			<path class="st2" d="M1909,952.8l-49.8,74.8c-3.9,5.8-6,10-6.5,12.5c-0.4,2.5-0.1,4.8,0.9,6.8c1,2.1,3.7,4.5,8.1,7.5l-2.4,3.7
				l-45.2-30.1l2.4-3.7c4.5,3,7.9,4.6,10,4.8c2.1,0.2,4.4-0.5,6.6-1.9c2.3-1.4,5.3-5,9.2-10.8l23.9-35.9
				c6.7-10.1,10.8-16.8,12.1-20.2c1-2.5,1.2-4.5,0.8-6c-0.5-1.5-1.6-2.9-3.3-4c-1.9-1.3-4.5-2.3-7.9-3.1l1-4.6l35.6,7.3L1909,952.8z
				 M1933,898.5c2.8,1.9,4.6,4.5,5.3,7.8c0.7,3.3,0.1,6.4-1.8,9.3c-1.9,2.8-4.5,4.6-7.9,5.3c-3.4,0.7-6.4,0.1-9.3-1.8
				c-2.8-1.9-4.6-4.5-5.3-7.9c-0.7-3.4-0.1-6.5,1.8-9.3c1.9-2.8,4.5-4.6,7.8-5.3C1927,895.9,1930.1,896.6,1933,898.5z"/>
			<path class="st2" d="M1920,977.4l36.4,7.5l3.9,2.6l-14.5,21.7c10.3-5,18.9-7.5,25.9-7.6c7-0.1,13.2,1.7,18.6,5.3
				c9.3,6.2,14.7,15.1,16.1,26.5c1.7,14-2.2,28.2-11.8,42.6c-10.7,16.1-24.1,26.3-40.3,30.6c-13.3,3.5-25.7,1.5-37.2-6.2
				c-5-3.3-8.9-6.9-11.6-10.8c-2-2.8-3.7-6.9-5.1-12.2l-18.9,28.3c-4.2,6.4-6.5,10.7-6.9,12.9c-0.4,2.2,0.1,4.5,1.3,6.8
				c1.3,2.3,4.4,5.1,9.5,8.5l-2.5,3.8l-48.8-32.5l2.5-3.8l2.5,1.7c3.7,2.5,7.3,4,11,4.2c1.8,0.1,3.6-0.4,5.4-1.6
				c1.8-1.2,5-5.2,9.5-11.9l58.6-88c4-6,6.3-10,6.8-12s0.5-3.8-0.2-5.4c-0.6-1.6-2-3.1-4-4.4c-1.6-1.1-4-2-7.1-2.7L1920,977.4z
				 M1941.8,1015.3l-23.1,34.7c-5,7.5-8,12.7-9,15.4c-1.7,4.6-1.7,9.6,0.1,15c1.7,5.4,5.4,10,11,13.8c6.8,4.5,14,5.5,21.7,3
				c10.1-3.3,19.3-11.1,27.7-23.7c9.5-14.2,13.6-27.2,12.5-39c-0.8-8.2-4.2-14.2-10.2-18.2c-3.3-2.2-7-3.5-11.3-4
				C1957.9,1011.9,1951.4,1012.9,1941.8,1015.3z"/>
			<path class="st2" d="M2098.9,1079.3l-21.1,31.7l-3.4-2.2c4.1-11.7,5.3-20.6,3.6-26.9c-1.6-6.3-5.6-11.5-11.8-15.6
				c-4.7-3.2-9.4-4.5-14-3.9c-4.6,0.6-7.9,2.4-9.9,5.4c-2.5,3.8-3.6,7.8-3.2,11.9c0.2,4.2,2.6,10,6.9,17.4l10,17.1
				c9.3,15.9,10.3,29.3,3,40.3c-5.6,8.5-13.4,13.2-23.2,14.1c-9.9,0.9-18.7-1.3-26.7-6.5c-5.7-3.8-11.5-9.1-17.5-16
				c-1.8-2.2-3.4-3.7-4.8-4.7c-1.6-1-3.4-1-5.4,0.2l-3.4-2.2l22.1-33.2l3.4,2.2c-4.4,10.7-5.6,20.3-3.4,28.7
				c2.1,8.4,6.5,14.8,13.2,19.2c4.7,3.1,9.4,4.3,14.2,3.5c4.8-0.8,8.4-3.1,11-7c3.1-4.7,4.1-9.7,2.9-15.1c-1.2-5.4-5-13.8-11.6-25.2
				c-6.6-11.4-10.1-20.1-10.5-26.1c-0.5-5.9,1.2-11.8,5.2-17.7c5.1-7.7,12-12.3,20.7-14s17.2,0.3,25.5,5.8
				c3.7,2.4,7.6,6.2,11.8,11.2c2.8,3.3,4.7,5.4,5.9,6.1c1.1,0.7,2.1,1,3,1c0.9-0.1,2.3-0.6,4.2-1.7L2098.9,1079.3z"/>
			<path class="st2" d="M2199.4,1150.3l-37.6,56.4c-7.2,10.8-11.3,17.5-12.4,20.3c-1.1,2.7-1.4,5-0.9,6.7c0.5,1.7,1.5,3,3,4
				c2.1,1.4,4.9,2.4,8.3,3l-0.9,4.5l-35.5-7.1l-4.6-3l13.1-19.7c-13.8,3.3-23.5,4.7-29.2,4.2c-5.7-0.6-10.9-2.4-15.5-5.5
				c-5.2-3.5-8.7-8-10.6-13.6c-1.8-5.6-1.9-11.2-0.2-16.9c1.7-5.7,5.4-12.9,11.2-21.6l27.7-41.5c2.9-4.4,4.5-7.8,4.7-10.1
				c0.2-2.3-0.4-4.6-1.6-6.7c-1.3-2.2-4.3-4.8-9.3-8l2.5-3.8l32.6,21.7l-41.5,62.3c-5.8,8.7-8.1,15.4-6.8,20.1
				c1.2,4.7,3.9,8.5,8.2,11.3c2.9,1.9,6.8,3.2,11.7,3.9c4.9,0.6,11.6,0.1,20.1-1.7l35.1-52.7c3.5-5.3,4.9-9.5,4.2-12.6
				c-0.7-3.1-4-6.8-10-11l2.5-3.8L2199.4,1150.3z"/>
		</g>
		<g>
			<path class="st2" d="M204.8,188.3l2.9,2.9L171,220.7L64.3,149.7l2.5-3.8l5.2,3.5c5.8,3.9,11.3,4.8,16.3,2.6
				c2.9-1.2,6.9-5.8,12.1-13.6l59.2-88.9c5.7-8.6,8.4-14.6,7.9-18c-0.7-4.7-3.6-8.8-8.8-12.3l-5.2-3.5l2.5-3.8l62.4,41.6l-2.5,3.8
				c-7.3-4.9-12.9-7.7-16.7-8.2c-3.9-0.5-7.1-0.1-9.6,1.4c-2.5,1.4-6.5,6.3-12,14.5l-57.7,86.6c-3.7,5.6-5.8,9.8-6.1,12.7
				c-0.1,2,0.4,3.8,1.7,5.7c1.2,1.8,6.3,5.7,15.2,11.6l10.1,6.7c10.6,7,18.5,11.2,23.8,12.5c5.3,1.3,11,1.1,17.2-0.5
				C187.9,198.3,195.6,194.4,204.8,188.3z"/>
			<path class="st2" d="M303.1,170.4c14.1,9.4,21.8,22.3,23.2,38.7c1.2,14-2.2,26.9-10.1,38.7c-5.5,8.3-13.2,15.4-22.8,21.3
				c-9.7,5.9-19.5,8.6-29.4,8.3c-9.9-0.3-19.1-3.4-27.7-9.1c-14-9.3-21.4-22.4-22.3-39c-0.7-14.1,2.8-26.9,10.7-38.7
				c5.7-8.5,13.5-15.6,23.3-21.2c9.8-5.6,19.6-8.1,29.2-7.6C286.7,162.4,295.3,165.3,303.1,170.4z M295.5,174.9
				c-3.6-2.4-7.9-3.7-13-4c-5-0.3-10.5,1.5-16.3,5.4c-5.8,3.9-11.5,10-17.1,18.4c-9,13.5-14.1,27-15.3,40.4
				c-1.2,13.4,2.7,23,11.5,28.9c6.6,4.4,13.8,5.3,21.7,2.7c7.9-2.6,16.2-10.5,25-23.7c11-16.5,16.1-31.9,15.3-46.1
				C306.9,187.2,303,179.9,295.5,174.9z"/>
			<path class="st2" d="M388.8,227.5l-13.9,20.9c17.1-8.8,29.7-10.4,37.9-5c3.7,2.5,6,5.7,7,9.6c0.9,3.9,0.4,7.3-1.6,10.3
				c-1.8,2.6-4.1,4.3-7.1,4.9c-3,0.7-5.7,0.2-8.1-1.5c-2.4-1.6-4.3-4.5-5.6-8.8c-1.4-4.3-2.8-6.9-4.2-7.9c-1.2-0.8-3-1-5.3-0.6
				c-4.9,0.7-11.1,3.2-18.6,7.4l-29.7,44.6c-3.4,5.1-5.4,9.5-5.9,13c-0.3,2.4,0.2,5,1.6,7.7c1.4,2.7,4.2,5.5,8.4,8.3l-2.4,3.7
				l-47.6-31.7l2.4-3.7c4.7,3.2,8.8,4.8,12.1,4.8c2.4,0,4.7-0.9,7-2.8c1.1-0.9,3.5-4.1,7.1-9.5l24-36.1
				c7.2-10.8,11.3-17.4,12.2-19.8c0.9-2.4,1.1-4.4,0.6-6.1c-0.6-1.7-1.7-3.2-3.5-4.4c-2.1-1.4-4.8-2.5-8.1-3.2l1.4-4.3l35.7,7.4
				L388.8,227.5z"/>
			<path class="st2" d="M421.3,303.8c-9.3,13.8-13.1,26.8-11.6,39.2c1.5,12.4,6.9,21.6,16,27.7c6.1,4.1,12.5,5.9,19.2,5.6
				s14.3-3.6,22.8-9.7l1.8,4.1c-7.6,8.3-17.4,14-29.3,17.1c-11.9,3.1-23,1.2-33.3-5.7c-11.2-7.4-17.8-18.2-20-32.2
				c-2.2-14,1.7-28.4,11.4-43.1c10.6-15.9,23-25.6,37-29.1c14.1-3.5,27.3-1.1,39.6,7.1c10.4,6.9,16.7,16.1,18.8,27.4
				c2.1,11.3-0.6,22.8-8.3,34.3L421.3,303.8z M425.3,297.9l43.1,28.7c3.6-6.2,5.7-10.9,6.3-14c0.8-4.9,0.3-9.6-1.6-14
				c-1.9-4.4-4.7-7.8-8.3-10.3c-5.6-3.7-12.1-4.9-19.5-3.5S431.2,290.6,425.3,297.9z"/>
			<path class="st2" d="M537.6,355.3c11.3-2.3,17.9-3.5,19.8-3.7c4.8-0.5,9.4-0.4,13.8,0.6c4.5,0.9,8.4,2.5,11.9,4.8
				c5.8,3.9,9.7,8.9,11.7,15.1c1.9,6.2,1.5,13-1.4,20.3c12.4-3.5,21.8-4.9,28.3-4.2c6.5,0.7,12.3,2.7,17.4,6.1
				c4.9,3.3,8.5,7.5,10.6,12.6c2.1,5.1,2.4,11.3,0.8,18.5c-1.1,4.9-4.5,11.6-10.1,20l-26.7,40c-3.9,5.8-6.1,10.1-6.7,12.9
				c-0.3,1.9,0.1,4,1.2,6.3c1.1,2.3,3.8,4.8,7.9,7.5l-2.4,3.7l-45.9-30.6l2.4-3.7l1.9,1.3c4,2.7,7.6,4,10.9,3.9c2.3,0,4.5-1,6.8-2.9
				c1-1,3.4-4.2,7-9.6l26.7-40c5.1-7.6,7.7-13.5,8-17.9c0.2-6.1-2.5-11.1-8.4-15c-3.6-2.4-7.8-3.9-12.6-4.5
				c-4.8-0.6-11.4-0.2-19.8,1.2l-0.9,1l-2.7,4.5l-29.6,44.4c-4.2,6.4-6.5,10.6-6.9,12.6c-0.3,2,0.1,4.2,1.4,6.6
				c1.3,2.4,4.3,5.1,9,8.3l-2.4,3.7l-47-31.3l2.4-3.7c5.1,3.4,9.1,5.2,11.8,5.2c2.7,0.1,5.3-0.9,7.7-2.8c1.1-0.9,3.5-4.2,7.2-9.7
				l26.7-40c5.1-7.6,7.6-13.8,7.5-18.6c-0.1-6.3-2.8-11.3-8.2-14.8c-3.7-2.4-7.9-3.9-12.8-4.3c-7.6-0.8-14.2-0.3-19.7,1.4L501,410.3
				c-4.1,6.1-6.3,10.3-6.6,12.7s0,4.6,1,6.6c1,2,4.1,4.7,9.2,8.1l-2.4,3.7l-46-30.7l2.4-3.7c4.3,2.8,7.6,4.4,9.9,4.6
				c2.3,0.2,4.6-0.4,6.8-1.8c2.2-1.4,5.2-5,9.1-10.8l23.7-35.6c6.8-10.2,10.9-17,12.3-20.4c1-2.6,1.3-4.6,0.8-6.1
				c-0.5-1.5-1.6-2.9-3.3-4c-1.9-1.3-4.5-2.3-7.8-3l0.9-4.7l35.6,7.3l4.4,2.9L537.6,355.3z"/>
			<path class="st2" d="M769.2,480.9l-49.8,74.8c-3.9,5.8-6,10-6.5,12.5c-0.4,2.5-0.1,4.8,0.9,6.8c1,2.1,3.7,4.5,8.1,7.5l-2.4,3.7
				L674.2,556l2.4-3.7c4.5,3,7.9,4.6,10,4.8c2.1,0.2,4.4-0.5,6.6-1.9c2.3-1.4,5.3-5,9.2-10.8l23.9-35.9
				c6.7-10.1,10.8-16.8,12.1-20.2c1-2.5,1.2-4.5,0.8-6c-0.5-1.5-1.6-2.9-3.3-4c-1.9-1.3-4.5-2.3-7.9-3.1l1-4.6l35.6,7.3L769.2,480.9
				z M793.1,426.7c2.8,1.9,4.6,4.5,5.3,7.8c0.7,3.3,0.1,6.4-1.8,9.3c-1.9,2.8-4.5,4.6-7.9,5.3c-3.4,0.7-6.4,0.1-9.3-1.8
				s-4.6-4.5-5.3-7.9c-0.7-3.4-0.1-6.5,1.8-9.3c1.9-2.8,4.5-4.6,7.8-5.3C787.1,424.1,790.2,424.7,793.1,426.7z"/>
			<path class="st2" d="M780.2,505.6l36.4,7.5l3.9,2.6l-14.5,21.7c10.3-5,18.9-7.5,25.9-7.6c7-0.1,13.2,1.7,18.6,5.3
				c9.3,6.2,14.7,15.1,16.1,26.5c1.7,14-2.2,28.2-11.8,42.6c-10.7,16.1-24.1,26.3-40.3,30.6c-13.3,3.5-25.7,1.5-37.2-6.2
				c-5-3.3-8.9-6.9-11.6-10.8c-2-2.8-3.7-6.9-5.1-12.2L741.5,634c-4.2,6.4-6.5,10.7-6.9,12.9c-0.4,2.2,0.1,4.5,1.3,6.8
				c1.3,2.3,4.4,5.1,9.5,8.5l-2.5,3.8l-48.8-32.5l2.5-3.8l2.5,1.7c3.7,2.5,7.3,4,11,4.2c1.8,0.1,3.6-0.4,5.4-1.6
				c1.8-1.2,5-5.2,9.5-11.9l58.6-88c4-6,6.3-10,6.8-12c0.5-2,0.5-3.8-0.2-5.4c-0.6-1.6-2-3.1-4-4.4c-1.6-1.1-4-2-7.1-2.7
				L780.2,505.6z M801.9,543.4l-23.1,34.7c-5,7.5-8,12.7-9,15.4c-1.7,4.6-1.7,9.6,0.1,15c1.7,5.4,5.4,10,11,13.8
				c6.8,4.5,14,5.5,21.7,3c10.1-3.3,19.3-11.1,27.7-23.7c9.5-14.2,13.6-27.2,12.5-39c-0.8-8.2-4.2-14.2-10.2-18.2
				c-3.3-2.2-7-3.5-11.3-4C818.1,540.1,811.6,541,801.9,543.4z"/>
			<path class="st3" d="M959,607.4l-21.1,31.7l-3.4-2.2c4.1-11.7,5.3-20.6,3.6-26.9c-1.6-6.3-5.6-11.5-11.8-15.6
				c-4.7-3.2-9.4-4.5-14-3.9c-4.6,0.6-7.9,2.4-9.9,5.4c-2.5,3.8-3.6,7.8-3.2,11.9c0.2,4.2,2.6,10,6.9,17.4l10,17.1
				c9.3,15.9,10.3,29.3,3,40.3c-5.6,8.5-13.4,13.2-23.2,14.1c-9.9,0.9-18.7-1.3-26.7-6.5c-5.7-3.8-11.5-9.1-17.5-16
				c-1.8-2.2-3.4-3.7-4.8-4.7c-1.6-1-3.4-1-5.4,0.2l-3.4-2.2l22.1-33.2l3.4,2.2c-4.4,10.7-5.6,20.3-3.4,28.7
				c2.1,8.4,6.5,14.8,13.2,19.2c4.7,3.1,9.4,4.3,14.2,3.5c4.8-0.8,8.4-3.1,11-7c3.1-4.7,4.1-9.7,2.9-15.1s-5-13.8-11.6-25.2
				c-6.6-11.4-10.1-20.1-10.5-26.1c-0.5-5.9,1.2-11.8,5.2-17.7c5.1-7.7,12-12.3,20.7-14c8.7-1.7,17.2,0.3,25.5,5.8
				c3.7,2.4,7.6,6.2,11.8,11.2c2.8,3.3,4.7,5.4,5.9,6.1c1.1,0.7,2.1,1,3,1c0.9-0.1,2.3-0.6,4.2-1.7L959,607.4z"/>
			<path class="st2" d="M1059.6,678.4l-37.6,56.4c-7.2,10.8-11.3,17.5-12.4,20.3s-1.4,5-0.9,6.7c0.5,1.7,1.5,3,3,4
				c2.1,1.4,4.9,2.4,8.3,3l-0.9,4.5l-35.5-7.1l-4.6-3l13.1-19.7c-13.8,3.3-23.5,4.7-29.2,4.2c-5.7-0.6-10.9-2.4-15.5-5.5
				c-5.2-3.5-8.7-8-10.6-13.6c-1.8-5.6-1.9-11.2-0.2-16.9c1.7-5.7,5.4-12.9,11.2-21.6l27.7-41.5c2.9-4.4,4.5-7.8,4.7-10.1
				c0.2-2.3-0.4-4.6-1.6-6.7c-1.3-2.2-4.3-4.8-9.3-8l2.5-3.8l32.6,21.7l-41.5,62.3c-5.8,8.7-8.1,15.4-6.8,20.1
				c1.2,4.7,3.9,8.5,8.2,11.3c2.9,1.9,6.8,3.2,11.7,3.9c4.9,0.6,11.6,0.1,20.1-1.7l35.1-52.7c3.5-5.3,4.9-9.5,4.2-12.6
				c-0.7-3.1-4-6.8-10-11l2.5-3.8L1059.6,678.4z"/>
			<path class="st2" d="M1098.3,728.8c11.3-2.3,17.9-3.5,19.8-3.7c4.8-0.5,9.4-0.4,13.8,0.6c4.5,0.9,8.4,2.5,11.9,4.8
				c5.8,3.9,9.7,8.9,11.7,15.1c1.9,6.2,1.5,13-1.4,20.3c12.4-3.5,21.8-4.9,28.3-4.2c6.5,0.7,12.3,2.7,17.4,6.1
				c4.9,3.3,8.5,7.5,10.6,12.6c2.1,5.1,2.4,11.3,0.8,18.5c-1.1,4.9-4.5,11.6-10.1,20l-26.7,40c-3.9,5.8-6.1,10.1-6.7,12.9
				c-0.3,1.9,0.1,4,1.2,6.3c1.1,2.3,3.8,4.8,7.9,7.5l-2.4,3.7l-45.9-30.6l2.4-3.7l1.9,1.3c4,2.7,7.6,4,10.9,3.9c2.3,0,4.5-1,6.8-2.9
				c1-1,3.4-4.2,7-9.6l26.7-40c5.1-7.6,7.7-13.5,8-17.9c0.2-6.1-2.5-11.1-8.4-15c-3.6-2.4-7.8-3.9-12.6-4.5
				c-4.8-0.6-11.4-0.2-19.8,1.2l-0.9,1l-2.7,4.5l-29.6,44.4c-4.2,6.4-6.5,10.6-6.9,12.6c-0.3,2,0.1,4.2,1.4,6.6
				c1.3,2.4,4.3,5.1,9,8.3l-2.4,3.7l-47-31.3l2.4-3.7c5.1,3.4,9.1,5.2,11.8,5.2c2.7,0.1,5.3-0.9,7.7-2.8c1.1-0.9,3.5-4.2,7.2-9.7
				l26.7-40c5.1-7.6,7.6-13.8,7.5-18.6c-0.1-6.3-2.8-11.3-8.2-14.8c-3.7-2.4-7.9-3.9-12.8-4.3c-7.6-0.8-14.2-0.3-19.7,1.4
				l-33.2,49.9c-4.1,6.1-6.3,10.3-6.6,12.7c-0.4,2.4,0,4.6,1,6.6c1.1,2,4.1,4.7,9.2,8.1l-2.4,3.7l-46-30.7l2.4-3.7
				c4.3,2.8,7.6,4.4,9.9,4.6c2.3,0.2,4.6-0.4,6.8-1.8c2.2-1.4,5.2-5,9.1-10.8l23.7-35.6c6.8-10.2,10.9-17,12.3-20.4
				c1-2.6,1.3-4.6,0.8-6.1c-0.5-1.5-1.6-2.9-3.3-4c-1.9-1.3-4.5-2.3-7.8-3l0.9-4.7l35.6,7.3l4.4,2.9L1098.3,728.8z"/>
			<path class="st2" d="M1372,965.9l2.9,2.9l-36.7,29.5l-106.7-71.1l2.5-3.8l5.2,3.5c5.8,3.9,11.3,4.8,16.3,2.6
				c2.9-1.2,6.9-5.8,12.1-13.6l59.2-88.9c5.7-8.6,8.4-14.6,7.9-18c-0.7-4.7-3.6-8.8-8.8-12.3l-5.2-3.5l2.5-3.8l62.4,41.6l-2.5,3.8
				c-7.3-4.9-12.9-7.7-16.7-8.2c-3.9-0.5-7.1-0.1-9.6,1.4c-2.5,1.4-6.5,6.3-12,14.5l-57.7,86.6c-3.7,5.6-5.8,9.8-6.1,12.7
				c-0.1,2,0.4,3.8,1.7,5.7c1.2,1.8,6.3,5.7,15.2,11.6l10.1,6.7c10.6,7,18.5,11.2,23.8,12.5c5.3,1.3,11,1.1,17.2-0.5
				C1355.2,976,1362.8,972.1,1372,965.9z"/>
			<path class="st2" d="M1470.3,948.1c14.1,9.4,21.8,22.3,23.2,38.7c1.2,14-2.2,26.9-10.1,38.7c-5.5,8.3-13.2,15.4-22.8,21.3
				c-9.7,5.9-19.5,8.6-29.4,8.3c-9.9-0.3-19.1-3.4-27.7-9.1c-14-9.3-21.4-22.3-22.3-39c-0.7-14.1,2.8-26.9,10.7-38.7
				c5.7-8.5,13.5-15.6,23.3-21.2c9.8-5.6,19.6-8.1,29.2-7.6C1453.9,940.1,1462.6,942.9,1470.3,948.1z M1462.8,952.6
				c-3.6-2.4-7.9-3.7-13-4s-10.5,1.5-16.3,5.4c-5.8,3.9-11.5,10-17.1,18.4c-9,13.5-14.1,27-15.3,40.4c-1.2,13.4,2.7,23,11.5,28.9
				c6.6,4.4,13.8,5.3,21.7,2.7c7.9-2.6,16.2-10.5,25-23.7c11-16.5,16.1-31.9,15.3-46.1C1474.2,964.9,1470.2,957.5,1462.8,952.6z"/>
			<path class="st2" d="M1556.1,1005.2l-13.9,20.9c17.1-8.8,29.7-10.4,37.9-5c3.7,2.5,6,5.7,7,9.6c0.9,3.9,0.4,7.3-1.6,10.3
				c-1.8,2.6-4.1,4.3-7.1,4.9c-3,0.7-5.7,0.2-8.1-1.5c-2.4-1.6-4.3-4.5-5.6-8.8c-1.4-4.3-2.8-6.9-4.2-7.9c-1.2-0.8-3-1-5.3-0.6
				c-4.9,0.7-11.1,3.2-18.6,7.4l-29.7,44.6c-3.4,5.1-5.4,9.5-5.9,13c-0.3,2.4,0.2,5,1.6,7.7c1.4,2.7,4.2,5.5,8.4,8.3l-2.4,3.7
				l-47.6-31.7l2.4-3.7c4.7,3.2,8.8,4.8,12.1,4.8c2.4,0,4.8-0.9,7-2.8c1.1-0.9,3.5-4.1,7.1-9.5l24-36.1
				c7.2-10.8,11.3-17.4,12.2-19.8c0.9-2.4,1.1-4.4,0.6-6.1c-0.6-1.7-1.7-3.2-3.5-4.4c-2.1-1.4-4.8-2.5-8.1-3.2l1.4-4.3l35.7,7.4
				L1556.1,1005.2z"/>
			<path class="st2" d="M1588.6,1081.4c-9.3,13.8-13.1,26.8-11.6,39.2c1.5,12.4,6.9,21.6,16,27.7c6.1,4.1,12.5,5.9,19.2,5.6
				s14.3-3.6,22.8-9.7l1.8,4.1c-7.6,8.3-17.4,14-29.3,17.1c-11.9,3.1-23,1.2-33.3-5.7c-11.2-7.4-17.8-18.2-20-32.2
				c-2.2-14,1.7-28.4,11.4-43.1c10.6-15.9,23-25.6,37-29.1c14.1-3.5,27.3-1.1,39.6,7.1c10.4,6.9,16.7,16.1,18.8,27.4
				c2.1,11.3-0.6,22.8-8.3,34.3L1588.6,1081.4z M1592.5,1075.5l43.1,28.7c3.6-6.2,5.7-10.9,6.3-14c0.8-4.9,0.3-9.6-1.6-14
				c-1.9-4.4-4.7-7.8-8.3-10.3c-5.6-3.7-12.1-4.9-19.5-3.5C1605.1,1063.9,1598.4,1068.2,1592.5,1075.5z"/>
			<path class="st2" d="M1704.9,1133c11.3-2.3,17.9-3.5,19.8-3.7c4.8-0.5,9.4-0.4,13.8,0.6c4.5,0.9,8.4,2.5,11.9,4.8
				c5.8,3.9,9.7,8.9,11.7,15.1c1.9,6.2,1.5,13-1.4,20.3c12.4-3.5,21.8-4.9,28.3-4.2c6.5,0.7,12.3,2.7,17.4,6.1
				c4.9,3.3,8.5,7.5,10.6,12.6c2.1,5.1,2.4,11.3,0.8,18.5c-1.1,4.9-4.5,11.6-10.1,20l-26.7,40c-3.9,5.8-6.1,10.1-6.7,12.9
				c-0.3,1.9,0.1,4,1.2,6.3c1.1,2.3,3.8,4.8,7.9,7.5l-2.4,3.7l-45.9-30.6l2.4-3.7l1.9,1.3c4,2.7,7.6,4,10.9,3.9c2.3,0,4.5-1,6.8-2.9
				c1-1,3.4-4.2,7-9.6l26.7-40c5.1-7.6,7.7-13.5,7.9-17.9c0.2-6.1-2.5-11.1-8.4-15c-3.6-2.4-7.8-3.9-12.6-4.5
				c-4.8-0.6-11.4-0.2-19.8,1.2l-0.9,1l-2.7,4.5l-29.6,44.4c-4.2,6.4-6.5,10.6-6.9,12.6c-0.3,2,0.1,4.2,1.4,6.6
				c1.3,2.4,4.3,5.1,9,8.3l-2.4,3.7l-47-31.3l2.4-3.7c5.1,3.4,9.1,5.2,11.8,5.2c2.7,0.1,5.3-0.9,7.7-2.8c1.1-0.9,3.5-4.2,7.2-9.7
				l26.7-40c5.1-7.6,7.6-13.8,7.5-18.6c-0.1-6.3-2.8-11.3-8.2-14.8c-3.7-2.4-7.9-3.9-12.8-4.3c-7.6-0.8-14.2-0.3-19.7,1.4
				l-33.2,49.9c-4.1,6.1-6.3,10.3-6.7,12.7s0,4.6,1,6.6c1,2,4.1,4.7,9.2,8.1l-2.4,3.7l-46-30.7l2.4-3.7c4.3,2.8,7.6,4.4,9.9,4.6
				c2.3,0.2,4.6-0.4,6.8-1.8c2.2-1.4,5.2-5,9.1-10.8l23.7-35.6c6.8-10.2,10.9-17,12.3-20.4c1-2.6,1.3-4.6,0.8-6.1
				c-0.5-1.5-1.6-2.9-3.3-4c-1.9-1.3-4.5-2.3-7.8-3l0.9-4.7l35.6,7.3l4.4,2.9L1704.9,1133z"/>
		</g>
		<g>
			<path class="st2" d="M84.2,395.5l2.9,2.9L50.4,428l-106.7-71.1l2.5-3.8l5.2,3.5c5.8,3.9,11.3,4.8,16.3,2.6
				c2.9-1.2,6.9-5.8,12.1-13.6l59.2-88.9c5.7-8.6,8.4-14.6,7.9-18c-0.7-4.7-3.6-8.8-8.8-12.3l-5.2-3.5l2.5-3.8l62.4,41.6l-2.5,3.8
				c-7.3-4.9-12.9-7.7-16.7-8.2c-3.9-0.5-7.1-0.1-9.6,1.4c-2.5,1.4-6.5,6.3-12,14.5l-57.7,86.6c-3.7,5.6-5.8,9.8-6.1,12.7
				c-0.1,2,0.4,3.8,1.7,5.7c1.2,1.8,6.3,5.7,15.2,11.6l10.1,6.7c10.6,7,18.5,11.2,23.8,12.5c5.3,1.3,11,1.1,17.2-0.5
				C67.3,405.6,75,401.7,84.2,395.5z"/>
			<path class="st2" d="M182.5,377.6c14.1,9.4,21.8,22.3,23.2,38.7c1.2,14-2.2,26.9-10.1,38.7c-5.5,8.3-13.2,15.4-22.8,21.3
				c-9.7,5.9-19.5,8.6-29.4,8.3c-9.9-0.3-19.1-3.4-27.7-9.1c-14-9.3-21.4-22.4-22.3-39c-0.7-14.1,2.8-26.9,10.7-38.7
				c5.7-8.5,13.5-15.6,23.3-21.2c9.8-5.6,19.6-8.1,29.2-7.6C166.1,369.6,174.8,372.5,182.5,377.6z M175,382.1c-3.6-2.4-7.9-3.7-13-4
				c-5-0.3-10.5,1.5-16.3,5.4c-5.8,3.9-11.5,10-17.1,18.4c-9,13.5-14.1,27-15.3,40.4c-1.2,13.4,2.7,23,11.5,28.9
				c6.6,4.4,13.8,5.3,21.7,2.7c7.9-2.6,16.2-10.5,25-23.7c11-16.5,16.1-31.9,15.3-46.1C186.4,394.4,182.4,387.1,175,382.1z"/>
			<path class="st2" d="M268.3,434.8l-13.9,20.9c17.1-8.8,29.7-10.4,37.9-5c3.7,2.5,6,5.7,7,9.6c0.9,3.9,0.4,7.3-1.6,10.3
				c-1.8,2.6-4.1,4.3-7.1,4.9c-3,0.7-5.7,0.2-8.1-1.5c-2.4-1.6-4.3-4.5-5.6-8.8c-1.4-4.3-2.8-6.9-4.2-7.9c-1.2-0.8-3-1-5.3-0.6
				c-4.9,0.7-11.1,3.2-18.6,7.4l-29.7,44.6c-3.4,5.1-5.4,9.5-5.9,13c-0.3,2.4,0.2,5,1.6,7.7c1.4,2.7,4.2,5.5,8.4,8.3l-2.4,3.7
				L173,509.6l2.4-3.7c4.7,3.2,8.8,4.8,12.1,4.8c2.4,0,4.7-0.9,7-2.8c1.1-0.9,3.5-4.1,7.1-9.5l24-36.1c7.2-10.8,11.3-17.4,12.2-19.8
				c0.9-2.4,1.1-4.4,0.6-6.1c-0.6-1.7-1.7-3.2-3.5-4.4c-2.1-1.4-4.8-2.5-8.1-3.2l1.4-4.3l35.7,7.4L268.3,434.8z"/>
			<path class="st2" d="M300.8,511c-9.3,13.8-13.1,26.8-11.6,39.2c1.5,12.4,6.9,21.6,16,27.7c6.1,4.1,12.5,5.9,19.2,5.6
				s14.3-3.6,22.8-9.7l1.8,4.1c-7.6,8.3-17.4,14-29.3,17.1c-11.9,3.1-23,1.2-33.3-5.7c-11.2-7.4-17.8-18.2-20-32.2
				c-2.2-14,1.7-28.4,11.4-43.1c10.6-15.9,23-25.6,37-29.1c14.1-3.5,27.3-1.1,39.6,7.1c10.4,6.9,16.7,16.1,18.8,27.4
				c2.1,11.3-0.6,22.8-8.3,34.3L300.8,511z M304.7,505.1l43.1,28.7c3.6-6.2,5.7-10.9,6.3-14c0.8-4.9,0.3-9.6-1.6-14
				c-1.9-4.4-4.7-7.8-8.3-10.3c-5.6-3.7-12.1-4.9-19.5-3.5S310.6,497.8,304.7,505.1z"/>
			<path class="st2" d="M417.1,562.5c11.3-2.3,17.9-3.5,19.8-3.7c4.8-0.5,9.4-0.4,13.8,0.6c4.5,0.9,8.4,2.5,11.9,4.8
				c5.8,3.9,9.7,8.9,11.7,15.1c1.9,6.2,1.5,13-1.4,20.3c12.4-3.5,21.8-4.9,28.3-4.2c6.5,0.7,12.3,2.7,17.4,6.1
				c4.9,3.3,8.5,7.5,10.6,12.6c2.1,5.1,2.4,11.3,0.8,18.5c-1.1,4.9-4.5,11.6-10.1,20l-26.7,40c-3.9,5.8-6.1,10.1-6.7,12.9
				c-0.3,1.9,0.1,4,1.2,6.3c1.1,2.3,3.8,4.8,7.9,7.5l-2.4,3.7l-45.9-30.6l2.4-3.7l1.9,1.3c4,2.7,7.6,4,10.9,3.9c2.3,0,4.5-1,6.8-2.9
				c1-1,3.4-4.2,7-9.6l26.7-40c5.1-7.6,7.7-13.5,8-17.9c0.2-6.1-2.5-11.1-8.4-15c-3.6-2.4-7.8-3.9-12.6-4.5
				c-4.8-0.6-11.4-0.2-19.8,1.2l-0.9,1l-2.7,4.5L437,655.1c-4.2,6.4-6.5,10.6-6.9,12.6c-0.3,2,0.1,4.2,1.4,6.6
				c1.3,2.4,4.3,5.1,9,8.3l-2.4,3.7l-47-31.3l2.4-3.7c5.1,3.4,9.1,5.2,11.8,5.2c2.7,0.1,5.3-0.9,7.7-2.8c1.1-0.9,3.5-4.2,7.2-9.7
				l26.7-40c5.1-7.6,7.6-13.8,7.5-18.6c-0.1-6.3-2.8-11.3-8.2-14.8c-3.7-2.4-7.9-3.9-12.8-4.3c-7.6-0.8-14.2-0.3-19.7,1.4
				l-33.2,49.9c-4.1,6.1-6.3,10.3-6.6,12.7s0,4.6,1,6.6c1,2,4.1,4.7,9.2,8.1l-2.4,3.7l-46-30.7l2.4-3.7c4.3,2.8,7.6,4.4,9.9,4.6
				c2.3,0.2,4.6-0.4,6.8-1.8c2.2-1.4,5.2-5,9.1-10.8l23.7-35.6c6.8-10.2,10.9-17,12.3-20.4c1-2.6,1.3-4.6,0.8-6.1
				c-0.5-1.5-1.6-2.9-3.3-4c-1.9-1.3-4.5-2.3-7.8-3l0.9-4.7l35.6,7.3l4.4,2.9L417.1,562.5z"/>
			<path class="st2" d="M648.6,688.2l-49.8,74.8c-3.9,5.8-6,10-6.5,12.5s-0.1,4.8,0.9,6.8c1,2.1,3.7,4.5,8.1,7.5l-2.4,3.7
				l-45.2-30.1l2.4-3.7c4.5,3,7.9,4.6,10,4.8c2.1,0.2,4.4-0.5,6.6-1.9c2.3-1.4,5.3-5,9.2-10.8l23.9-35.9
				c6.7-10.1,10.8-16.8,12.1-20.2c1-2.5,1.2-4.5,0.8-6c-0.5-1.5-1.6-2.9-3.3-4c-1.9-1.3-4.5-2.3-7.9-3.1l1-4.6l35.6,7.3L648.6,688.2
				z M672.6,633.9c2.8,1.9,4.6,4.5,5.3,7.8c0.7,3.3,0.1,6.4-1.8,9.3c-1.9,2.8-4.5,4.6-7.9,5.3c-3.4,0.7-6.4,0.1-9.3-1.8
				s-4.6-4.5-5.3-7.9s-0.1-6.5,1.8-9.3c1.9-2.8,4.5-4.6,7.8-5.3C666.6,631.3,669.7,631.9,672.6,633.9z"/>
			<path class="st2" d="M659.6,712.8l36.4,7.5l3.9,2.6l-14.5,21.7c10.3-5,18.9-7.5,25.9-7.6c7-0.1,13.2,1.7,18.6,5.3
				c9.3,6.2,14.7,15.1,16.1,26.5c1.7,14-2.2,28.2-11.8,42.6c-10.7,16.1-24.1,26.3-40.3,30.6c-13.3,3.5-25.7,1.5-37.2-6.2
				c-5-3.3-8.9-6.9-11.6-10.8c-2-2.8-3.7-6.9-5.1-12.2L621,841.2c-4.2,6.4-6.5,10.7-6.9,12.9c-0.4,2.2,0.1,4.5,1.3,6.8
				c1.3,2.3,4.4,5.1,9.5,8.5l-2.5,3.8l-48.8-32.5l2.5-3.8l2.5,1.7c3.7,2.5,7.3,4,11,4.2c1.8,0.1,3.6-0.4,5.4-1.6
				c1.8-1.2,5-5.2,9.5-11.9l58.6-88c4-6,6.3-10,6.8-12c0.5-2,0.5-3.8-0.2-5.4c-0.6-1.6-2-3.1-4-4.4c-1.6-1.1-4-2-7.1-2.7
				L659.6,712.8z M681.4,750.6l-23.1,34.7c-5,7.5-8,12.7-9,15.4c-1.7,4.6-1.7,9.6,0.1,15c1.7,5.4,5.4,10,11,13.8
				c6.8,4.5,14,5.5,21.7,3c10.1-3.3,19.3-11.1,27.7-23.7c9.5-14.2,13.6-27.2,12.5-39c-0.8-8.2-4.2-14.2-10.2-18.2
				c-3.3-2.2-7-3.5-11.3-4C697.5,747.3,691,748.3,681.4,750.6z"/>
			<path class="st2" d="M838.5,814.6l-21.1,31.7l-3.4-2.2c4.1-11.7,5.3-20.6,3.6-26.9c-1.6-6.3-5.6-11.5-11.8-15.6
				c-4.7-3.2-9.4-4.5-14-3.9c-4.6,0.6-7.9,2.4-9.9,5.4c-2.5,3.8-3.6,7.8-3.2,11.9c0.2,4.2,2.6,10,6.9,17.4l10,17.1
				c9.3,15.9,10.3,29.3,3,40.3c-5.6,8.5-13.4,13.2-23.2,14.1c-9.9,0.9-18.7-1.3-26.7-6.5c-5.7-3.8-11.5-9.1-17.5-16
				c-1.8-2.2-3.4-3.7-4.8-4.7c-1.6-1-3.4-1-5.4,0.2l-3.4-2.2l22.1-33.2l3.4,2.2c-4.4,10.7-5.6,20.3-3.4,28.7
				c2.1,8.4,6.5,14.8,13.2,19.2c4.7,3.1,9.4,4.3,14.2,3.5c4.8-0.8,8.4-3.1,11-7c3.1-4.7,4.1-9.7,2.9-15.1c-1.2-5.4-5-13.8-11.6-25.2
				c-6.6-11.4-10.1-20.1-10.5-26.1c-0.5-5.9,1.2-11.8,5.2-17.7c5.1-7.7,12-12.3,20.7-14c8.7-1.7,17.2,0.3,25.5,5.8
				c3.7,2.4,7.6,6.2,11.8,11.2c2.8,3.3,4.7,5.4,5.9,6.1c1.1,0.7,2.1,1,3,1c0.9-0.1,2.3-0.6,4.2-1.7L838.5,814.6z"/>
			<path class="st3" d="M939.1,885.6L901.5,942c-7.2,10.8-11.3,17.5-12.4,20.3c-1.1,2.7-1.4,5-0.9,6.7c0.5,1.7,1.5,3,3,4
				c2.1,1.4,4.9,2.4,8.3,3l-0.9,4.5l-35.5-7.1l-4.6-3l13.1-19.7c-13.8,3.3-23.5,4.7-29.2,4.2c-5.7-0.6-10.9-2.4-15.5-5.5
				c-5.2-3.5-8.7-8-10.6-13.6c-1.8-5.6-1.9-11.2-0.2-16.9c1.7-5.7,5.4-12.9,11.2-21.6l27.7-41.6c2.9-4.4,4.5-7.8,4.7-10.1
				c0.2-2.3-0.4-4.6-1.6-6.7c-1.3-2.2-4.3-4.8-9.3-8l2.5-3.8l32.6,21.7l-41.5,62.3c-5.8,8.7-8.1,15.4-6.8,20.1
				c1.2,4.7,3.9,8.5,8.2,11.3c2.9,1.9,6.8,3.2,11.7,3.9c4.9,0.6,11.6,0.1,20.1-1.7l35.1-52.7c3.5-5.3,4.9-9.5,4.2-12.6
				c-0.7-3.1-4-6.8-10-11l2.5-3.8L939.1,885.6z"/>
			<path class="st2" d="M977.8,936c11.3-2.3,17.9-3.5,19.8-3.7c4.8-0.5,9.4-0.4,13.8,0.6c4.5,0.9,8.4,2.5,11.9,4.8
				c5.8,3.9,9.7,8.9,11.7,15.1c1.9,6.2,1.5,13-1.4,20.3c12.4-3.5,21.8-4.9,28.3-4.2c6.5,0.7,12.3,2.7,17.4,6.1
				c4.9,3.3,8.5,7.5,10.6,12.6c2.1,5.1,2.4,11.3,0.8,18.5c-1.1,4.9-4.5,11.6-10.1,20l-26.7,40c-3.9,5.8-6.1,10.1-6.7,12.9
				c-0.3,1.9,0.1,4,1.2,6.3c1.1,2.3,3.8,4.8,7.9,7.5l-2.4,3.7l-45.9-30.6l2.4-3.7l1.9,1.3c4,2.7,7.6,4,10.9,3.9c2.3,0,4.5-1,6.8-2.9
				c1-1,3.4-4.2,7-9.6l26.7-40c5.1-7.6,7.7-13.5,7.9-17.9c0.2-6.1-2.5-11.1-8.4-15c-3.6-2.4-7.8-3.9-12.6-4.5
				c-4.8-0.6-11.4-0.2-19.8,1.2l-0.9,1l-2.7,4.5l-29.6,44.4c-4.2,6.4-6.5,10.6-6.9,12.6c-0.3,2,0.1,4.2,1.4,6.6
				c1.3,2.4,4.3,5.1,9,8.3l-2.4,3.7l-47-31.3l2.4-3.7c5.1,3.4,9.1,5.2,11.8,5.2c2.7,0.1,5.3-0.9,7.7-2.8c1.1-0.9,3.5-4.2,7.2-9.7
				l26.7-40c5.1-7.6,7.6-13.8,7.5-18.6c-0.1-6.3-2.8-11.3-8.2-14.8c-3.7-2.4-7.9-3.9-12.8-4.3c-7.6-0.8-14.2-0.3-19.7,1.4L941.2,991
				c-4.1,6.1-6.3,10.3-6.6,12.7c-0.4,2.4,0,4.6,1,6.6c1,2,4.1,4.7,9.2,8.1l-2.4,3.7l-46-30.7l2.4-3.7c4.3,2.8,7.6,4.4,9.9,4.6
				c2.3,0.2,4.6-0.4,6.8-1.8c2.2-1.4,5.2-5,9.1-10.8l23.7-35.6c6.8-10.2,10.9-17,12.3-20.4c1-2.6,1.3-4.6,0.8-6.1
				c-0.5-1.5-1.6-2.9-3.3-4c-1.9-1.3-4.5-2.3-7.8-3l0.9-4.7l35.6,7.3l4.4,2.9L977.8,936z"/>
		</g>
		<g>
			<path class="st2" d="M-161.7,453.1l36.4,7.5l3.9,2.6L-136,485c10.3-5,18.9-7.5,25.9-7.6c7-0.1,13.2,1.7,18.6,5.3
				c9.3,6.2,14.7,15.1,16.1,26.5c1.7,14-2.2,28.2-11.8,42.6c-10.7,16.1-24.1,26.3-40.3,30.6c-13.3,3.5-25.7,1.5-37.2-6.2
				c-5-3.3-8.9-6.9-11.6-10.8c-2-2.8-3.7-6.9-5.1-12.2l-18.9,28.3c-4.2,6.4-6.5,10.7-6.9,12.9c-0.4,2.2,0.1,4.5,1.3,6.8
				c1.3,2.3,4.4,5.1,9.5,8.5l-2.5,3.8l-48.8-32.5l2.5-3.8l2.5,1.7c3.7,2.5,7.3,4,11,4.2c1.8,0.1,3.6-0.4,5.4-1.6
				c1.8-1.2,5-5.2,9.5-11.9l58.6-88c4-6,6.3-10,6.8-12c0.5-2,0.5-3.8-0.2-5.4c-0.6-1.6-2-3.1-4-4.4c-1.6-1.1-4-2-7.1-2.7
				L-161.7,453.1z M-140,491l-23.1,34.7c-5,7.5-8,12.7-9,15.4c-1.7,4.6-1.7,9.6,0.1,15c1.7,5.4,5.4,10,11,13.8
				c6.8,4.5,14,5.5,21.7,3c10.1-3.3,19.3-11.1,27.7-23.7c9.5-14.2,13.6-27.2,12.5-39c-0.8-8.2-4.2-14.2-10.2-18.2
				c-3.3-2.2-7-3.5-11.3-4C-123.8,487.6-130.3,488.6-140,491z"/>
			<path class="st2" d="M17.2,555L-4,586.7l-3.4-2.2c4.1-11.7,5.3-20.6,3.6-26.9c-1.6-6.3-5.6-11.5-11.8-15.6
				c-4.7-3.2-9.4-4.5-14-3.9c-4.6,0.6-7.9,2.4-9.9,5.4c-2.5,3.8-3.6,7.8-3.2,11.9c0.2,4.2,2.6,10,6.9,17.4l10,17.1
				c9.3,15.9,10.3,29.3,3,40.3c-5.6,8.5-13.4,13.2-23.2,14.1s-18.7-1.3-26.7-6.5c-5.7-3.8-11.5-9.1-17.5-16
				c-1.8-2.2-3.4-3.7-4.8-4.7c-1.6-1-3.4-1-5.4,0.2l-3.4-2.2l22.1-33.2l3.4,2.2c-4.4,10.7-5.6,20.3-3.4,28.7
				c2.1,8.4,6.5,14.8,13.2,19.2c4.7,3.1,9.4,4.3,14.2,3.5c4.8-0.8,8.4-3.1,11-7c3.1-4.7,4.1-9.7,2.9-15.1c-1.2-5.4-5-13.8-11.6-25.2
				c-6.6-11.4-10.1-20.1-10.5-26.1c-0.5-5.9,1.2-11.8,5.2-17.7c5.1-7.7,12-12.3,20.7-14c8.7-1.7,17.2,0.3,25.5,5.8
				c3.7,2.4,7.6,6.2,11.8,11.2c2.8,3.3,4.7,5.4,5.9,6.1c1.1,0.7,2.1,1,3,1c0.9-0.1,2.3-0.6,4.2-1.7L17.2,555z"/>
			<path class="st2" d="M117.7,626l-37.6,56.4c-7.2,10.8-11.3,17.5-12.4,20.3c-1.1,2.7-1.4,5-0.9,6.7c0.5,1.7,1.5,3,3,4
				c2.1,1.4,4.9,2.4,8.3,3l-0.9,4.5l-35.5-7.1l-4.6-3L50.2,691c-13.8,3.3-23.5,4.7-29.2,4.2c-5.7-0.6-10.9-2.4-15.5-5.5
				c-5.2-3.5-8.7-8-10.6-13.6c-1.8-5.6-1.9-11.2-0.2-16.9c1.7-5.7,5.4-12.9,11.2-21.6L33.6,596c2.9-4.4,4.5-7.8,4.7-10.1
				c0.2-2.3-0.4-4.6-1.6-6.7c-1.3-2.2-4.3-4.8-9.3-8l2.5-3.8l32.6,21.7L21,651.4c-5.8,8.7-8.1,15.4-6.8,20.1
				c1.2,4.7,3.9,8.5,8.2,11.3c2.9,1.9,6.8,3.2,11.7,3.9c4.9,0.6,11.6,0.1,20.1-1.7l35.1-52.7c3.5-5.3,4.9-9.5,4.2-12.6
				c-0.7-3.1-4-6.8-10-11l2.5-3.8L117.7,626z"/>
			<path class="st3" d="M156.4,676.4c11.3-2.3,17.9-3.5,19.8-3.7c4.8-0.5,9.4-0.4,13.8,0.6c4.5,0.9,8.4,2.5,11.9,4.8
				c5.8,3.9,9.7,8.9,11.7,15.1c1.9,6.2,1.5,13-1.4,20.3c12.4-3.5,21.8-4.9,28.3-4.2c6.5,0.7,12.3,2.7,17.4,6.1
				c4.9,3.3,8.5,7.5,10.6,12.6c2.1,5.1,2.4,11.3,0.8,18.5c-1.1,4.9-4.5,11.6-10.1,20l-26.7,40c-3.9,5.8-6.1,10.1-6.7,12.9
				c-0.3,1.9,0.1,4,1.2,6.3c1.1,2.3,3.8,4.8,7.9,7.5l-2.4,3.7l-45.9-30.6l2.4-3.7l1.9,1.3c4,2.7,7.6,4,10.9,3.9c2.3,0,4.5-1,6.8-2.9
				c1-1,3.4-4.2,7-9.6l26.7-40c5.1-7.6,7.7-13.5,8-17.9c0.2-6.1-2.5-11.1-8.4-15c-3.6-2.4-7.8-3.9-12.6-4.5
				c-4.8-0.6-11.4-0.2-19.8,1.2l-0.9,1l-2.7,4.5L176.3,769c-4.2,6.4-6.5,10.6-6.9,12.6c-0.3,2,0.1,4.2,1.4,6.6
				c1.3,2.4,4.3,5.1,9,8.3l-2.4,3.7l-47-31.3l2.4-3.7c5.1,3.4,9.1,5.2,11.8,5.2c2.7,0.1,5.3-0.9,7.7-2.8c1.1-0.9,3.5-4.2,7.2-9.7
				l26.7-40c5.1-7.6,7.6-13.8,7.5-18.6c-0.1-6.3-2.8-11.3-8.2-14.8c-3.7-2.4-7.9-3.9-12.8-4.3c-7.6-0.8-14.2-0.3-19.7,1.4
				l-33.2,49.9c-4.1,6.1-6.3,10.3-6.6,12.7c-0.4,2.4,0,4.6,1,6.6c1,2,4.1,4.7,9.2,8.1l-2.4,3.7l-46-30.7l2.4-3.7
				c4.3,2.8,7.6,4.4,9.9,4.6c2.3,0.2,4.6-0.4,6.8-1.8c2.2-1.4,5.2-5,9.1-10.8l23.7-35.6c6.8-10.2,10.9-17,12.3-20.4
				c1-2.6,1.3-4.6,0.8-6.1c-0.5-1.5-1.6-2.9-3.3-4c-1.9-1.3-4.5-2.3-7.8-3l0.9-4.7l35.6,7.3l4.4,2.9L156.4,676.4z"/>
			<path class="st2" d="M430.2,913.5l2.9,2.9L396.4,946l-106.7-71.1l2.5-3.8l5.2,3.5c5.8,3.9,11.3,4.8,16.3,2.6
				c2.9-1.2,6.9-5.8,12.1-13.6l59.2-88.9c5.7-8.6,8.4-14.6,7.9-18c-0.7-4.7-3.6-8.8-8.8-12.3l-5.2-3.5l2.5-3.8l62.4,41.6l-2.5,3.8
				c-7.3-4.9-12.9-7.7-16.7-8.2c-3.9-0.5-7.1-0.1-9.6,1.4c-2.5,1.4-6.5,6.3-12,14.5l-57.7,86.6c-3.7,5.6-5.8,9.8-6.1,12.7
				c-0.1,2,0.4,3.8,1.7,5.7c1.2,1.8,6.3,5.7,15.2,11.6l10.1,6.7c10.6,7,18.5,11.2,23.8,12.5c5.3,1.3,11,1.1,17.2-0.5
				C413.3,923.6,421,919.7,430.2,913.5z"/>
			<path class="st2" d="M528.5,895.6c14.1,9.4,21.8,22.3,23.2,38.7c1.2,14-2.2,26.9-10.1,38.7c-5.5,8.3-13.2,15.4-22.8,21.3
				c-9.7,5.9-19.5,8.6-29.4,8.3c-9.9-0.3-19.1-3.4-27.7-9.1c-14-9.3-21.4-22.4-22.3-39c-0.7-14.1,2.8-26.9,10.7-38.7
				c5.7-8.5,13.5-15.6,23.3-21.2c9.8-5.6,19.6-8.1,29.2-7.6C512.1,887.6,520.7,890.5,528.5,895.6z M520.9,900.1
				c-3.6-2.4-7.9-3.7-13-4c-5-0.3-10.5,1.5-16.3,5.4c-5.8,3.9-11.5,10-17.1,18.4c-9,13.5-14.1,27-15.3,40.4
				c-1.2,13.4,2.7,23,11.5,28.9c6.6,4.4,13.8,5.3,21.7,2.7c7.9-2.6,16.2-10.5,25-23.7c11-16.5,16.1-31.9,15.3-46.1
				C532.3,912.4,528.4,905.1,520.9,900.1z"/>
			<path class="st2" d="M614.2,952.8l-13.9,20.9c17.1-8.8,29.7-10.4,37.9-5c3.7,2.5,6,5.7,7,9.6c0.9,3.9,0.4,7.3-1.6,10.3
				c-1.8,2.6-4.1,4.3-7.1,4.9c-3,0.7-5.7,0.2-8.1-1.5c-2.4-1.6-4.3-4.5-5.6-8.8c-1.4-4.3-2.8-6.9-4.2-7.9c-1.2-0.8-3-1-5.3-0.6
				c-4.9,0.7-11.1,3.2-18.6,7.4l-29.7,44.6c-3.4,5.1-5.4,9.5-5.9,13c-0.3,2.4,0.2,5,1.6,7.7c1.4,2.7,4.2,5.5,8.4,8.3l-2.4,3.7
				l-47.6-31.7l2.4-3.7c4.7,3.2,8.8,4.8,12.1,4.8c2.4,0,4.7-0.9,7-2.8c1.1-0.9,3.5-4.1,7.1-9.5l24-36.1
				c7.2-10.8,11.3-17.4,12.2-19.8c0.9-2.4,1.1-4.4,0.6-6.1c-0.6-1.7-1.7-3.2-3.5-4.4c-2.1-1.4-4.8-2.5-8.1-3.2l1.4-4.3l35.7,7.4
				L614.2,952.8z"/>
			<path class="st2" d="M646.7,1029c-9.3,13.8-13.1,26.8-11.6,39.2c1.5,12.4,6.9,21.6,16,27.7c6.1,4.1,12.5,5.9,19.2,5.6
				s14.3-3.6,22.8-9.7l1.8,4.1c-7.6,8.3-17.4,14-29.3,17.1c-11.9,3.1-23,1.2-33.3-5.7c-11.2-7.4-17.8-18.2-20-32.2
				c-2.2-14,1.7-28.4,11.4-43.1c10.6-15.9,23-25.6,37-29.1c14.1-3.5,27.3-1.1,39.6,7.1c10.4,6.9,16.7,16.1,18.8,27.4
				c2.1,11.3-0.6,22.8-8.3,34.3L646.7,1029z M650.7,1023.1l43.1,28.7c3.6-6.2,5.7-10.9,6.3-14c0.8-4.9,0.3-9.6-1.6-14
				c-1.9-4.4-4.7-7.8-8.3-10.3c-5.6-3.7-12.1-4.9-19.5-3.5S656.6,1015.8,650.7,1023.1z"/>
			<path class="st2" d="M763,1080.5c11.3-2.3,17.9-3.5,19.8-3.7c4.8-0.5,9.4-0.4,13.8,0.6c4.5,0.9,8.4,2.5,11.9,4.8
				c5.8,3.9,9.7,8.9,11.7,15.1c1.9,6.2,1.5,13-1.4,20.3c12.4-3.5,21.8-4.9,28.3-4.2c6.5,0.7,12.3,2.7,17.4,6.1
				c4.9,3.3,8.5,7.5,10.6,12.6c2.1,5.1,2.4,11.3,0.8,18.5c-1.1,4.9-4.5,11.6-10.1,20l-26.7,40c-3.9,5.8-6.1,10.1-6.7,12.9
				c-0.3,1.9,0.1,4,1.2,6.3c1.1,2.3,3.8,4.8,7.9,7.5l-2.4,3.7l-45.9-30.6l2.4-3.7l1.9,1.3c4,2.7,7.6,4,10.9,3.9c2.3,0,4.5-1,6.8-2.9
				c1-1,3.4-4.2,7-9.6l26.7-40c5.1-7.6,7.7-13.5,8-17.9c0.2-6.1-2.5-11.1-8.4-15c-3.6-2.4-7.8-3.9-12.6-4.5
				c-4.8-0.6-11.4-0.2-19.8,1.2l-0.9,1l-2.7,4.5l-29.6,44.4c-4.2,6.4-6.5,10.6-6.9,12.6c-0.3,2,0.1,4.2,1.4,6.6
				c1.3,2.4,4.3,5.1,9,8.3l-2.4,3.7l-47-31.3l2.4-3.7c5.1,3.4,9.1,5.2,11.8,5.2c2.7,0.1,5.3-0.9,7.7-2.8c1.1-0.9,3.5-4.2,7.2-9.7
				l26.7-40c5.1-7.6,7.6-13.8,7.5-18.6c-0.1-6.3-2.8-11.3-8.2-14.8c-3.7-2.4-7.9-3.9-12.8-4.3c-7.6-0.8-14.2-0.3-19.7,1.4
				l-33.2,49.9c-4.1,6.1-6.3,10.3-6.6,12.7c-0.4,2.4,0,4.6,1,6.6c1,2,4.1,4.7,9.2,8.1l-2.4,3.7l-46-30.7l2.4-3.7
				c4.3,2.8,7.6,4.4,9.9,4.6c2.3,0.2,4.6-0.4,6.8-1.8c2.2-1.4,5.2-5,9.1-10.8l23.7-35.6c6.8-10.2,10.9-17,12.3-20.4
				c1-2.6,1.3-4.6,0.8-6.1c-0.5-1.5-1.6-2.9-3.3-4c-1.9-1.3-4.5-2.3-7.8-3l0.9-4.7l35.6,7.3l4.4,2.9L763,1080.5z"/>
		</g>
		<g>
			<path class="st2" d="M1224.6-78.2l-49.8,74.8c-3.9,5.8-6,10-6.5,12.5c-0.4,2.5-0.1,4.8,0.9,6.8c1,2.1,3.7,4.5,8.1,7.5l-2.4,3.7
				l-45.2-30.1l2.4-3.7c4.5,3,7.9,4.6,10,4.8c2.1,0.2,4.4-0.5,6.6-1.9c2.3-1.4,5.3-5,9.2-10.8l23.9-35.9
				c6.7-10.1,10.8-16.8,12.1-20.2c1-2.5,1.2-4.5,0.8-6c-0.5-1.5-1.6-2.9-3.3-4c-1.9-1.3-4.5-2.3-7.9-3.1l1-4.6l35.6,7.3L1224.6-78.2
				z M1248.6-132.5c2.8,1.9,4.6,4.5,5.3,7.8c0.7,3.3,0.1,6.4-1.8,9.3c-1.9,2.8-4.5,4.6-7.9,5.3c-3.4,0.7-6.4,0.1-9.3-1.8
				c-2.8-1.9-4.6-4.5-5.3-7.9c-0.7-3.4-0.1-6.5,1.8-9.3s4.5-4.6,7.8-5.3C1242.6-135.1,1245.7-134.4,1248.6-132.5z"/>
			<path class="st2" d="M1235.6-53.6L1272-46l3.9,2.6l-14.5,21.7c10.3-5,18.9-7.5,25.9-7.6c7-0.1,13.2,1.7,18.6,5.3
				c9.3,6.2,14.7,15.1,16.1,26.5c1.7,14-2.2,28.2-11.8,42.6c-10.7,16.1-24.1,26.3-40.3,30.6c-13.3,3.5-25.7,1.5-37.2-6.2
				c-5-3.3-8.9-6.9-11.6-10.8c-2-2.8-3.7-6.9-5.1-12.2L1197,74.9c-4.2,6.4-6.5,10.7-6.9,12.9c-0.4,2.2,0.1,4.5,1.3,6.8
				c1.3,2.3,4.4,5.1,9.5,8.5l-2.5,3.8l-48.8-32.5l2.5-3.8l2.5,1.7c3.7,2.5,7.3,4,11,4.2c1.8,0.1,3.6-0.4,5.4-1.6
				c1.8-1.2,5-5.2,9.5-11.9l58.6-88c4-6,6.3-10,6.8-12c0.5-2,0.5-3.8-0.2-5.4c-0.6-1.6-2-3.1-4-4.4c-1.6-1.1-4-2-7.1-2.7
				L1235.6-53.6z M1257.4-15.7L1234.2,19c-5,7.5-8,12.7-9,15.4c-1.7,4.6-1.7,9.6,0.1,15c1.7,5.4,5.4,10,11,13.8
				c6.8,4.5,14,5.5,21.7,3c10.1-3.3,19.3-11.1,27.7-23.7c9.5-14.2,13.6-27.2,12.5-39c-0.8-8.2-4.2-14.2-10.2-18.2
				c-3.3-2.2-7-3.5-11.3-4C1273.5-19.1,1267.1-18.1,1257.4-15.7z"/>
			<path class="st2" d="M1414.5,48.3L1393.4,80l-3.4-2.2c4.1-11.7,5.3-20.6,3.6-26.9c-1.6-6.3-5.6-11.5-11.8-15.6
				c-4.7-3.2-9.4-4.5-14-3.9c-4.6,0.6-7.9,2.4-9.9,5.4c-2.5,3.8-3.6,7.8-3.2,11.9c0.2,4.2,2.6,10,6.9,17.4l10,17.1
				c9.3,15.9,10.3,29.3,3,40.3c-5.6,8.5-13.4,13.2-23.2,14.1c-9.9,0.9-18.7-1.3-26.7-6.5c-5.7-3.8-11.5-9.1-17.5-16
				c-1.8-2.2-3.4-3.7-4.8-4.7c-1.6-1-3.4-1-5.4,0.2l-3.4-2.2l22.1-33.2l3.4,2.2c-4.4,10.7-5.6,20.3-3.4,28.7
				c2.1,8.4,6.5,14.8,13.2,19.2c4.7,3.1,9.4,4.3,14.2,3.5c4.8-0.8,8.4-3.1,11-7c3.1-4.7,4.1-9.7,2.9-15.1c-1.2-5.4-5-13.8-11.6-25.2
				c-6.6-11.4-10.1-20.1-10.5-26.1c-0.5-5.9,1.3-11.8,5.2-17.7c5.1-7.7,12-12.3,20.7-14c8.7-1.6,17.2,0.3,25.5,5.8
				c3.7,2.4,7.6,6.2,11.8,11.2c2.8,3.3,4.7,5.4,5.9,6.1c1.1,0.7,2.1,1,3,1c0.9-0.1,2.3-0.6,4.2-1.7L1414.5,48.3z"/>
			<path class="st2" d="M1515.1,119.3l-37.6,56.4c-7.2,10.8-11.3,17.5-12.4,20.3c-1.1,2.7-1.4,5-0.9,6.7c0.5,1.7,1.5,3,3,4
				c2.1,1.4,4.9,2.4,8.3,3l-0.9,4.5L1439,207l-4.6-3l13.1-19.7c-13.8,3.3-23.5,4.7-29.2,4.2s-10.9-2.4-15.5-5.5
				c-5.2-3.5-8.7-8-10.5-13.6c-1.8-5.6-1.9-11.2-0.2-16.9c1.7-5.7,5.4-12.9,11.2-21.6l27.7-41.6c2.9-4.4,4.5-7.8,4.7-10.1
				c0.2-2.3-0.4-4.6-1.6-6.7c-1.3-2.2-4.3-4.8-9.3-8l2.5-3.8l32.6,21.7l-41.5,62.3c-5.8,8.7-8.1,15.4-6.8,20.1
				c1.2,4.7,3.9,8.5,8.2,11.3c2.9,1.9,6.8,3.2,11.7,3.9c4.9,0.6,11.6,0.1,20.1-1.7l35.1-52.7c3.5-5.3,4.9-9.5,4.2-12.6
				c-0.7-3.1-4-6.8-10-11l2.5-3.8L1515.1,119.3z"/>
			<path class="st2" d="M1553.8,169.7c11.3-2.3,17.9-3.5,19.8-3.7c4.8-0.5,9.4-0.4,13.8,0.6c4.5,0.9,8.4,2.5,11.9,4.8
				c5.8,3.9,9.7,8.9,11.7,15.1c1.9,6.2,1.5,13-1.4,20.3c12.4-3.5,21.8-4.9,28.3-4.2c6.5,0.7,12.3,2.7,17.4,6.1
				c4.9,3.3,8.5,7.5,10.6,12.6c2.1,5.1,2.4,11.3,0.8,18.5c-1.1,4.9-4.5,11.6-10.1,20l-26.7,40c-3.9,5.8-6.1,10.1-6.7,12.9
				c-0.3,1.9,0.1,4,1.2,6.3c1.1,2.3,3.8,4.8,7.9,7.5l-2.4,3.7l-45.9-30.6l2.4-3.7l1.9,1.3c4,2.7,7.6,4,10.9,3.9c2.3,0,4.5-1,6.8-2.9
				c1-1,3.4-4.2,7-9.6l26.7-40c5.1-7.6,7.7-13.5,8-17.9c0.2-6.1-2.5-11.1-8.4-15c-3.6-2.4-7.8-3.9-12.6-4.5
				c-4.8-0.6-11.4-0.2-19.8,1.2l-0.9,1l-2.7,4.5l-29.6,44.4c-4.2,6.4-6.5,10.6-6.9,12.6c-0.3,2,0.1,4.2,1.4,6.6
				c1.3,2.4,4.3,5.1,9,8.3l-2.4,3.7l-47-31.3l2.4-3.7c5.1,3.4,9.1,5.2,11.8,5.2c2.7,0.1,5.3-0.9,7.7-2.8c1.1-0.9,3.5-4.2,7.2-9.7
				l26.7-40c5.1-7.6,7.6-13.8,7.5-18.6c-0.1-6.3-2.8-11.3-8.2-14.8c-3.7-2.4-7.9-3.9-12.8-4.3c-7.6-0.8-14.2-0.3-19.7,1.4
				l-33.2,49.9c-4.1,6.1-6.3,10.3-6.6,12.7s0,4.6,1,6.6c1,2,4.1,4.7,9.2,8.1l-2.4,3.7l-46-30.7l2.4-3.7c4.3,2.8,7.6,4.4,9.9,4.6
				c2.3,0.2,4.6-0.4,6.8-1.8c2.2-1.4,5.2-5,9.1-10.8l23.7-35.6c6.8-10.2,10.9-17,12.3-20.4c1-2.6,1.3-4.6,0.8-6.1
				c-0.5-1.5-1.6-2.9-3.3-4c-1.9-1.3-4.5-2.3-7.8-3l0.9-4.7l35.6,7.3l4.4,2.9L1553.8,169.7z"/>
			<path class="st2" d="M1827.5,406.8l2.9,2.9l-36.7,29.5L1687,368.2l2.5-3.8l5.2,3.5c5.8,3.9,11.3,4.8,16.3,2.6
				c2.9-1.2,6.9-5.8,12.1-13.6l59.2-88.9c5.7-8.6,8.4-14.6,7.9-18c-0.7-4.7-3.6-8.8-8.8-12.3l-5.2-3.5l2.5-3.8l62.4,41.6l-2.5,3.8
				c-7.3-4.9-12.9-7.7-16.7-8.2c-3.9-0.5-7.1-0.1-9.6,1.4c-2.5,1.4-6.5,6.3-12,14.5l-57.7,86.6c-3.7,5.6-5.8,9.8-6.1,12.7
				c-0.1,2,0.4,3.8,1.7,5.7c1.2,1.8,6.3,5.7,15.2,11.6l10.1,6.7c10.6,7,18.5,11.2,23.8,12.5c5.3,1.3,11,1.1,17.2-0.5
				C1810.6,416.9,1818.3,413,1827.5,406.8z"/>
			<path class="st2" d="M1925.8,388.9c14.1,9.4,21.8,22.3,23.2,38.7c1.2,14-2.2,26.9-10.1,38.7c-5.5,8.3-13.2,15.4-22.8,21.3
				c-9.7,5.9-19.5,8.6-29.4,8.3c-9.9-0.3-19.1-3.4-27.7-9.1c-14-9.3-21.4-22.3-22.3-39c-0.7-14.1,2.8-26.9,10.7-38.7
				c5.7-8.5,13.5-15.6,23.3-21.2c9.8-5.6,19.6-8.1,29.2-7.6C1909.4,380.9,1918.1,383.8,1925.8,388.9z M1918.2,393.4
				c-3.6-2.4-7.9-3.7-13-4c-5-0.3-10.5,1.5-16.3,5.4c-5.8,3.9-11.5,10-17.1,18.4c-9,13.5-14.1,27-15.3,40.4
				c-1.2,13.4,2.7,23,11.5,28.9c6.6,4.4,13.8,5.3,21.7,2.7c7.9-2.6,16.2-10.5,25-23.7c11-16.5,16.1-31.9,15.3-46.1
				C1929.7,405.7,1925.7,398.4,1918.2,393.4z"/>
			<path class="st2" d="M2011.5,446.1l-13.9,20.9c17.1-8.8,29.7-10.4,37.9-5c3.7,2.5,6,5.7,7,9.6c0.9,3.9,0.4,7.3-1.6,10.3
				c-1.8,2.6-4.1,4.3-7.1,4.9c-3,0.7-5.7,0.2-8.1-1.5c-2.4-1.6-4.3-4.5-5.6-8.8c-1.4-4.3-2.8-6.9-4.2-7.9c-1.2-0.8-3-1-5.3-0.6
				c-4.9,0.7-11.1,3.2-18.6,7.4l-29.7,44.6c-3.4,5.1-5.4,9.5-5.9,13c-0.3,2.4,0.2,5,1.6,7.7c1.4,2.7,4.2,5.5,8.4,8.3l-2.4,3.7
				l-47.6-31.7l2.4-3.7c4.7,3.2,8.8,4.8,12.1,4.8c2.4,0,4.8-0.9,7-2.8c1.1-0.9,3.5-4.1,7.1-9.5l24-36.1
				c7.2-10.8,11.3-17.4,12.2-19.8c0.9-2.4,1.1-4.4,0.6-6.1c-0.6-1.7-1.7-3.2-3.5-4.4c-2.1-1.4-4.8-2.5-8.1-3.2l1.4-4.3l35.7,7.4
				L2011.5,446.1z"/>
			<path class="st2" d="M2044.1,522.3c-9.3,13.8-13.1,26.8-11.6,39.2c1.5,12.4,6.9,21.6,16,27.7c6.1,4.1,12.5,5.9,19.2,5.6
				c6.7-0.4,14.3-3.6,22.8-9.7l1.8,4.1c-7.6,8.3-17.4,14-29.3,17.1c-11.9,3.1-23,1.2-33.3-5.7c-11.2-7.4-17.8-18.2-20-32.2
				c-2.2-14,1.7-28.4,11.4-43.1c10.6-15.9,23-25.6,37-29.1c14.1-3.5,27.3-1.1,39.6,7.1c10.4,6.9,16.7,16.1,18.8,27.4
				c2.1,11.3-0.6,22.8-8.3,34.3L2044.1,522.3z M2048,516.4l43.1,28.7c3.6-6.2,5.7-10.9,6.3-14c0.8-4.9,0.3-9.6-1.6-14
				c-1.9-4.4-4.7-7.8-8.3-10.3c-5.6-3.7-12.1-4.9-19.5-3.5C2060.6,504.8,2053.9,509.1,2048,516.4z"/>
			<path class="st2" d="M2160.4,573.8c11.3-2.3,17.9-3.5,19.8-3.7c4.8-0.5,9.4-0.4,13.8,0.6c4.5,0.9,8.4,2.5,11.9,4.8
				c5.8,3.9,9.7,8.9,11.7,15.1c1.9,6.2,1.5,13-1.4,20.3c12.4-3.5,21.8-4.9,28.3-4.2c6.5,0.7,12.3,2.7,17.4,6.1
				c4.9,3.3,8.5,7.5,10.6,12.6c2.1,5.1,2.4,11.3,0.8,18.5c-1.1,4.9-4.5,11.6-10.1,20l-26.7,40c-3.9,5.8-6.1,10.1-6.7,12.9
				c-0.3,1.9,0.1,4,1.2,6.3c1.1,2.3,3.8,4.8,7.9,7.5l-2.4,3.7l-45.9-30.6l2.4-3.7l1.9,1.3c4,2.7,7.6,4,10.9,3.9c2.3,0,4.5-1,6.8-2.9
				c1-1,3.4-4.2,7-9.6l26.7-40c5.1-7.6,7.7-13.5,7.9-17.9c0.2-6.1-2.5-11.1-8.4-15c-3.6-2.4-7.8-3.9-12.6-4.5
				c-4.8-0.6-11.4-0.2-19.8,1.2l-0.9,1l-2.7,4.5l-29.6,44.4c-4.2,6.4-6.5,10.6-6.9,12.6c-0.3,2,0.1,4.2,1.4,6.6
				c1.3,2.4,4.3,5.1,9,8.3l-2.4,3.7l-47-31.3l2.4-3.7c5.1,3.4,9.1,5.2,11.8,5.2c2.7,0.1,5.3-0.9,7.7-2.8c1.1-0.9,3.5-4.2,7.2-9.7
				l26.7-40c5.1-7.6,7.6-13.8,7.5-18.6c-0.1-6.3-2.8-11.3-8.2-14.8c-3.7-2.4-7.9-3.9-12.8-4.3c-7.6-0.8-14.2-0.3-19.7,1.4
				l-33.2,49.9c-4.1,6.1-6.3,10.3-6.7,12.7c-0.4,2.4,0,4.6,1,6.6c1,2,4.1,4.7,9.2,8.1l-2.4,3.7l-46-30.7l2.4-3.7
				c4.3,2.8,7.6,4.4,9.9,4.6c2.3,0.2,4.6-0.4,6.8-1.8c2.2-1.4,5.2-5,9.1-10.8l23.7-35.6c6.8-10.2,10.9-17,12.3-20.4
				c1-2.6,1.3-4.6,0.8-6.1c-0.5-1.5-1.6-2.9-3.3-4c-1.9-1.3-4.5-2.3-7.8-3l0.9-4.7l35.6,7.3l4.4,2.9L2160.4,573.8z"/>
		</g>
		<g>
			<path class="st2" d="M1034.2,165.8l2.9,2.9l-36.7,29.5l-106.7-71.1l2.5-3.8l5.2,3.5c5.8,3.9,11.3,4.8,16.3,2.6
				c2.9-1.2,6.9-5.8,12.1-13.6L989.1,27c5.7-8.6,8.4-14.6,7.9-18c-0.7-4.7-3.6-8.8-8.8-12.3L983-6.8l2.5-3.8l62.4,41.6l-2.5,3.8
				c-7.3-4.9-12.9-7.7-16.7-8.2c-3.9-0.5-7.1-0.1-9.6,1.4c-2.5,1.4-6.5,6.3-12,14.5l-57.7,86.6c-3.7,5.6-5.8,9.8-6.1,12.7
				c-0.1,2,0.4,3.8,1.7,5.7c1.2,1.8,6.3,5.7,15.2,11.6l10.1,6.7c10.6,7,18.5,11.2,23.8,12.5c5.3,1.3,11,1.1,17.2-0.5
				C1017.3,175.9,1025,172,1034.2,165.8z"/>
			<path class="st2" d="M1132.5,147.9c14.1,9.4,21.8,22.3,23.2,38.7c1.2,14-2.2,26.9-10.1,38.7c-5.5,8.3-13.2,15.4-22.8,21.3
				c-9.7,5.9-19.5,8.6-29.4,8.3c-9.9-0.3-19.1-3.4-27.7-9.1c-14-9.3-21.4-22.4-22.3-39c-0.7-14.1,2.8-26.9,10.7-38.7
				c5.7-8.5,13.5-15.6,23.3-21.2c9.8-5.6,19.6-8.1,29.2-7.6C1116.1,139.9,1124.7,142.8,1132.5,147.9z M1124.9,152.4
				c-3.6-2.4-7.9-3.7-13-4c-5-0.3-10.5,1.5-16.3,5.4c-5.8,3.9-11.5,10-17.1,18.4c-9,13.5-14.1,27-15.3,40.4
				c-1.2,13.4,2.7,23,11.5,28.9c6.6,4.4,13.8,5.3,21.7,2.7s16.2-10.5,25-23.7c11-16.5,16.1-31.9,15.3-46.1
				C1136.3,164.7,1132.4,157.4,1124.9,152.4z"/>
			<path class="st2" d="M1218.2,205.1l-13.9,20.9c17.1-8.8,29.7-10.4,37.9-5c3.7,2.5,6,5.7,7,9.6c0.9,3.9,0.4,7.3-1.6,10.3
				c-1.8,2.6-4.1,4.3-7.1,4.9c-3,0.7-5.7,0.2-8.1-1.5c-2.4-1.6-4.3-4.5-5.6-8.8c-1.4-4.3-2.8-6.9-4.2-7.9c-1.2-0.8-3-1-5.3-0.6
				c-4.9,0.7-11.1,3.2-18.6,7.4l-29.7,44.6c-3.4,5.1-5.4,9.5-5.9,13c-0.3,2.4,0.2,5,1.6,7.7c1.4,2.7,4.2,5.5,8.4,8.3l-2.4,3.7
				l-47.6-31.7l2.4-3.7c4.7,3.2,8.8,4.8,12.1,4.8c2.4,0,4.8-0.9,7-2.8c1.1-0.9,3.5-4.1,7.1-9.5l24-36.1
				c7.2-10.8,11.3-17.4,12.2-19.8c0.9-2.4,1.1-4.4,0.6-6.1c-0.6-1.7-1.7-3.2-3.5-4.4c-2.1-1.4-4.8-2.5-8.1-3.2l1.4-4.3l35.7,7.4
				L1218.2,205.1z"/>
			<path class="st2" d="M1250.7,281.3c-9.3,13.8-13.1,26.8-11.6,39.2c1.5,12.4,6.9,21.6,16,27.7c6.1,4.1,12.5,5.9,19.2,5.6
				c6.7-0.4,14.3-3.6,22.8-9.7l1.8,4.1c-7.6,8.3-17.4,14-29.3,17.1c-11.9,3.1-23,1.2-33.3-5.7c-11.2-7.4-17.8-18.2-20-32.2
				c-2.2-14,1.7-28.4,11.4-43.1c10.6-15.9,23-25.6,37-29.1c14.1-3.5,27.3-1.1,39.6,7.1c10.4,6.9,16.7,16.1,18.8,27.4
				c2.1,11.3-0.6,22.8-8.3,34.3L1250.7,281.3z M1254.7,275.4l43.1,28.7c3.6-6.2,5.7-10.9,6.3-14c0.8-4.9,0.3-9.6-1.6-14
				c-1.9-4.4-4.7-7.8-8.3-10.3c-5.6-3.7-12.1-4.9-19.5-3.5C1267.2,263.8,1260.6,268.1,1254.7,275.4z"/>
			<path class="st2" d="M1367,332.8c11.3-2.3,17.9-3.5,19.8-3.7c4.8-0.5,9.4-0.4,13.8,0.6c4.5,0.9,8.4,2.5,11.9,4.8
				c5.8,3.9,9.7,8.9,11.7,15.1c1.9,6.2,1.5,13-1.4,20.3c12.4-3.5,21.8-4.9,28.3-4.2c6.5,0.7,12.3,2.7,17.4,6.1
				c4.9,3.3,8.5,7.5,10.6,12.6c2.1,5.1,2.4,11.3,0.8,18.5c-1.1,4.9-4.5,11.6-10.1,20l-26.7,40c-3.9,5.8-6.1,10.1-6.7,12.9
				c-0.3,1.9,0.1,4,1.2,6.3c1.1,2.3,3.8,4.8,7.9,7.5l-2.4,3.7l-45.9-30.6l2.4-3.7l1.9,1.3c4,2.7,7.6,4,10.9,3.9c2.3,0,4.5-1,6.8-2.9
				c1-1,3.4-4.2,7-9.6l26.7-40c5.1-7.6,7.7-13.5,8-17.9c0.2-6.1-2.5-11.1-8.4-15c-3.6-2.4-7.8-3.9-12.6-4.5
				c-4.8-0.6-11.4-0.2-19.8,1.2l-0.9,1l-2.7,4.5l-29.6,44.4c-4.2,6.4-6.5,10.6-6.9,12.6c-0.3,2,0.1,4.2,1.4,6.6
				c1.3,2.4,4.3,5.1,9,8.3l-2.4,3.7l-47-31.3l2.4-3.7c5.1,3.4,9.1,5.2,11.8,5.2c2.7,0.1,5.3-0.9,7.7-2.8c1.1-0.9,3.5-4.2,7.2-9.7
				l26.7-40c5.1-7.6,7.6-13.8,7.5-18.6c-0.1-6.3-2.8-11.3-8.2-14.8c-3.7-2.4-7.9-3.9-12.8-4.3c-7.6-0.8-14.2-0.3-19.7,1.4
				l-33.2,49.9c-4.1,6.1-6.3,10.3-6.6,12.7c-0.4,2.4,0,4.6,1,6.6c1,2,4.1,4.7,9.2,8.1l-2.4,3.7l-46-30.7l2.4-3.7
				c4.3,2.8,7.6,4.4,9.9,4.6c2.3,0.2,4.6-0.4,6.8-1.8c2.2-1.4,5.2-5,9.1-10.8l23.7-35.6c6.8-10.2,10.9-17,12.3-20.4
				c1-2.6,1.3-4.6,0.8-6.1c-0.5-1.5-1.6-2.9-3.3-4c-1.9-1.3-4.5-2.3-7.8-3l0.9-4.7l35.6,7.3l4.4,2.9L1367,332.8z"/>
			<path class="st3" d="M1598.6,458.4l-49.8,74.8c-3.9,5.8-6,10-6.5,12.5c-0.4,2.5-0.1,4.8,0.9,6.8c1,2.1,3.7,4.5,8.1,7.5l-2.4,3.7
				l-45.2-30.1l2.4-3.7c4.5,3,7.9,4.6,10,4.8c2.1,0.2,4.4-0.5,6.6-1.9c2.3-1.4,5.3-5,9.2-10.8l23.9-35.9
				c6.7-10.1,10.8-16.8,12.1-20.2c1-2.5,1.2-4.5,0.8-6c-0.5-1.5-1.6-2.9-3.3-4c-1.9-1.3-4.5-2.3-7.9-3.1l1-4.6l35.6,7.3
				L1598.6,458.4z M1622.5,404.2c2.8,1.9,4.6,4.5,5.3,7.8c0.7,3.3,0.1,6.4-1.8,9.3s-4.5,4.6-7.9,5.3s-6.4,0.1-9.3-1.8
				c-2.8-1.9-4.6-4.5-5.3-7.9c-0.7-3.4-0.1-6.5,1.8-9.3c1.9-2.8,4.5-4.6,7.8-5.3C1616.5,401.6,1619.6,402.2,1622.5,404.2z"/>
			<path class="st2" d="M1609.6,483.1l36.4,7.5l3.9,2.6l-14.5,21.7c10.3-5,18.9-7.5,25.9-7.6c7-0.1,13.2,1.7,18.6,5.3
				c9.3,6.2,14.7,15.1,16.1,26.5c1.7,14-2.2,28.2-11.8,42.6c-10.7,16.1-24.1,26.3-40.3,30.6c-13.3,3.5-25.7,1.5-37.2-6.2
				c-5-3.3-8.9-6.9-11.6-10.8c-2-2.8-3.7-6.9-5.1-12.2l-18.9,28.3c-4.2,6.4-6.5,10.7-6.9,12.9c-0.4,2.2,0.1,4.5,1.3,6.8
				c1.3,2.3,4.4,5.1,9.5,8.5l-2.5,3.8l-48.8-32.5l2.5-3.8l2.5,1.7c3.7,2.5,7.3,4,11,4.2c1.8,0.1,3.6-0.4,5.4-1.6
				c1.8-1.2,5-5.2,9.5-11.9l58.6-88c4-6,6.3-10,6.8-12c0.5-2,0.5-3.8-0.2-5.4c-0.6-1.6-2-3.1-4-4.4c-1.6-1.1-4-2-7.1-2.7
				L1609.6,483.1z M1631.3,520.9l-23.1,34.7c-5,7.5-8,12.7-9,15.4c-1.7,4.6-1.7,9.6,0.1,15c1.7,5.4,5.4,10,11,13.8
				c6.8,4.5,14,5.5,21.7,3c10.1-3.3,19.3-11.1,27.7-23.7c9.5-14.2,13.6-27.2,12.5-39c-0.8-8.2-4.2-14.2-10.2-18.2
				c-3.3-2.2-7-3.5-11.3-4C1647.5,517.6,1641,518.6,1631.3,520.9z"/>
			<path class="st2" d="M1788.4,584.9l-21.1,31.7l-3.4-2.2c4.1-11.7,5.3-20.6,3.6-26.9c-1.6-6.3-5.6-11.5-11.8-15.6
				c-4.7-3.2-9.4-4.5-14-3.9c-4.6,0.6-7.9,2.4-9.9,5.4c-2.5,3.8-3.6,7.8-3.2,11.9c0.2,4.2,2.6,10,6.9,17.4l10,17.1
				c9.3,15.9,10.3,29.3,3,40.3c-5.6,8.5-13.4,13.2-23.2,14.1c-9.9,0.9-18.7-1.3-26.7-6.5c-5.7-3.8-11.5-9.1-17.5-16
				c-1.8-2.2-3.4-3.7-4.8-4.7c-1.6-1-3.4-1-5.4,0.2l-3.4-2.2l22.1-33.2l3.4,2.2c-4.4,10.7-5.6,20.3-3.4,28.7
				c2.1,8.4,6.5,14.8,13.2,19.2c4.7,3.1,9.4,4.3,14.2,3.5c4.8-0.8,8.4-3.1,11-7c3.1-4.7,4.1-9.7,2.9-15.1c-1.2-5.4-5-13.8-11.6-25.2
				c-6.6-11.4-10.1-20.1-10.5-26.1c-0.5-5.9,1.2-11.8,5.2-17.7c5.1-7.7,12-12.3,20.7-14c8.7-1.7,17.2,0.3,25.5,5.8
				c3.7,2.4,7.6,6.2,11.8,11.2c2.8,3.3,4.7,5.4,5.9,6.1c1.1,0.7,2.1,1,3,1c0.9-0.1,2.3-0.6,4.2-1.7L1788.4,584.9z"/>
			<path class="st2" d="M1889,655.9l-37.6,56.4c-7.2,10.8-11.3,17.5-12.4,20.3c-1.1,2.7-1.4,5-0.9,6.7c0.5,1.7,1.5,3,3,4
				c2.1,1.4,4.9,2.4,8.3,3l-0.9,4.5l-35.5-7.1l-4.6-3l13.1-19.7c-13.8,3.3-23.5,4.7-29.2,4.2c-5.7-0.6-10.9-2.4-15.5-5.5
				c-5.2-3.5-8.7-8-10.5-13.6c-1.8-5.6-1.9-11.2-0.2-16.9c1.7-5.7,5.4-12.9,11.2-21.6l27.7-41.5c2.9-4.4,4.5-7.8,4.7-10.1
				c0.2-2.3-0.4-4.6-1.6-6.7c-1.3-2.2-4.3-4.8-9.3-8l2.5-3.8l32.6,21.7l-41.5,62.3c-5.8,8.7-8.1,15.4-6.8,20.1
				c1.2,4.7,3.9,8.5,8.2,11.3c2.9,1.9,6.8,3.2,11.7,3.9c4.9,0.6,11.6,0.1,20.1-1.7l35.1-52.7c3.5-5.3,4.9-9.5,4.2-12.6
				c-0.7-3.1-4-6.8-10-11l2.5-3.8L1889,655.9z"/>
			<path class="st2" d="M1927.7,706.3c11.3-2.3,17.9-3.5,19.8-3.7c4.8-0.5,9.4-0.4,13.8,0.6c4.5,0.9,8.4,2.5,11.9,4.8
				c5.8,3.9,9.7,8.9,11.7,15.1c1.9,6.2,1.5,13-1.4,20.3c12.4-3.5,21.8-4.9,28.3-4.2c6.5,0.7,12.3,2.7,17.4,6.1
				c4.9,3.3,8.5,7.5,10.6,12.6c2.1,5.1,2.4,11.3,0.8,18.5c-1.1,4.9-4.5,11.6-10.1,20l-26.7,40c-3.9,5.8-6.1,10.1-6.7,12.9
				c-0.3,1.9,0.1,4,1.2,6.3c1.1,2.3,3.8,4.8,7.9,7.5l-2.4,3.7l-45.9-30.6l2.4-3.7l1.9,1.3c4,2.7,7.6,4,10.9,3.9c2.3,0,4.5-1,6.8-2.9
				c1-1,3.4-4.2,7-9.6l26.7-40c5.1-7.6,7.7-13.5,8-17.9c0.2-6.1-2.5-11.1-8.4-15c-3.6-2.4-7.8-3.9-12.6-4.5
				c-4.8-0.6-11.4-0.2-19.8,1.2l-0.9,1l-2.7,4.5l-29.6,44.4c-4.2,6.4-6.5,10.6-6.9,12.6c-0.3,2,0.1,4.2,1.4,6.6
				c1.3,2.4,4.3,5.1,9,8.3l-2.4,3.7l-47-31.3l2.4-3.7c5.1,3.4,9.1,5.2,11.8,5.2c2.7,0.1,5.3-0.9,7.7-2.8c1.1-0.9,3.5-4.2,7.2-9.7
				l26.7-40c5.1-7.6,7.6-13.8,7.5-18.6c-0.1-6.3-2.8-11.3-8.2-14.8c-3.7-2.4-7.9-3.9-12.8-4.3c-7.6-0.8-14.2-0.3-19.7,1.4
				l-33.2,49.9c-4.1,6.1-6.3,10.3-6.7,12.7c-0.4,2.4,0,4.6,1,6.6c1,2,4.1,4.7,9.2,8.1l-2.4,3.7l-46-30.7l2.4-3.7
				c4.3,2.8,7.6,4.4,9.9,4.6c2.3,0.2,4.6-0.4,6.8-1.8c2.2-1.4,5.2-5,9.1-10.8l23.7-35.6c6.8-10.2,10.9-17,12.3-20.4
				c1-2.6,1.3-4.6,0.8-6.1c-0.5-1.5-1.6-2.9-3.3-4c-1.9-1.3-4.5-2.3-7.8-3l0.9-4.7l35.6,7.3l4.4,2.9L1927.7,706.3z"/>
		</g>
		<g>
			<path class="st2" d="M-23.4,815.5l-49.8,74.8c-3.9,5.8-6,10-6.5,12.5c-0.4,2.5-0.1,4.8,0.9,6.8c1,2.1,3.7,4.5,8.1,7.5l-2.4,3.7
				l-45.2-30.1l2.4-3.7c4.5,3,7.9,4.6,10,4.8c2.1,0.2,4.4-0.5,6.6-1.9c2.3-1.4,5.3-5,9.2-10.8l23.9-35.9
				c6.7-10.1,10.8-16.8,12.1-20.2c1-2.5,1.2-4.5,0.8-6c-0.5-1.5-1.6-2.9-3.3-4c-1.9-1.3-4.5-2.3-7.9-3.1l1-4.6l35.6,7.3L-23.4,815.5
				z M0.6,761.3c2.8,1.9,4.6,4.5,5.3,7.8c0.7,3.3,0.1,6.4-1.8,9.3c-1.9,2.8-4.5,4.6-7.9,5.3c-3.4,0.7-6.4,0.1-9.3-1.8
				c-2.8-1.9-4.6-4.5-5.3-7.9c-0.7-3.4-0.1-6.5,1.8-9.3s4.5-4.6,7.8-5.3C-5.4,758.7-2.3,759.3,0.6,761.3z"/>
			<path class="st2" d="M-12.3,840.2l36.4,7.5l3.9,2.6L13.4,872c10.3-5,18.9-7.5,25.9-7.6c7-0.1,13.2,1.7,18.6,5.3
				c9.3,6.2,14.7,15.1,16.1,26.5c1.7,14-2.2,28.2-11.8,42.6c-10.7,16.1-24.1,26.3-40.3,30.6c-13.3,3.5-25.7,1.5-37.2-6.2
				c-5-3.3-8.9-6.9-11.6-10.8c-2-2.8-3.7-6.9-5.1-12.2L-51,968.6c-4.2,6.4-6.5,10.7-6.9,12.9c-0.4,2.2,0.1,4.5,1.3,6.8
				c1.3,2.3,4.4,5.1,9.5,8.5l-2.5,3.8l-48.8-32.5l2.5-3.8l2.5,1.7c3.7,2.5,7.3,4,11,4.2c1.8,0.1,3.6-0.4,5.4-1.6
				c1.8-1.2,5-5.2,9.5-11.9l58.6-88c4-6,6.3-10,6.8-12c0.5-2,0.5-3.8-0.2-5.4c-0.6-1.6-2-3.1-4-4.4c-1.6-1.1-4-2-7.1-2.7
				L-12.3,840.2z M9.4,878l-23.1,34.7c-5,7.5-8,12.7-9,15.4c-1.7,4.6-1.7,9.6,0.1,15c1.7,5.4,5.4,10,11,13.8c6.8,4.5,14,5.5,21.7,3
				c10.1-3.3,19.3-11.1,27.7-23.7c9.5-14.2,13.6-27.2,12.5-39c-0.8-8.2-4.2-14.2-10.2-18.2c-3.3-2.2-7-3.5-11.3-4
				C25.6,874.7,19.1,875.6,9.4,878z"/>
			<path class="st2" d="M166.5,942l-21.1,31.7l-3.4-2.2c4.1-11.7,5.3-20.6,3.6-26.9c-1.6-6.3-5.6-11.5-11.8-15.6
				c-4.7-3.2-9.4-4.5-14-3.9c-4.6,0.6-7.9,2.4-9.9,5.4c-2.5,3.8-3.6,7.8-3.2,11.9c0.2,4.2,2.6,10,6.9,17.4l10,17.1
				c9.3,15.9,10.3,29.3,3,40.3c-5.6,8.5-13.4,13.2-23.2,14.1c-9.9,0.9-18.7-1.3-26.7-6.5c-5.7-3.8-11.5-9.1-17.5-16
				c-1.8-2.2-3.4-3.7-4.8-4.7c-1.6-1-3.4-1-5.4,0.2l-3.4-2.2l22.1-33.2l3.4,2.2c-4.4,10.7-5.6,20.3-3.4,28.7
				c2.1,8.4,6.5,14.8,13.2,19.2c4.7,3.1,9.4,4.3,14.2,3.5c4.8-0.8,8.4-3.1,11-7c3.1-4.7,4.1-9.7,2.9-15.1c-1.2-5.4-5-13.8-11.6-25.2
				C90.9,963.6,87.4,955,86.9,949c-0.5-5.9,1.2-11.8,5.2-17.7c5.1-7.7,12-12.3,20.7-14c8.7-1.7,17.2,0.3,25.5,5.8
				c3.7,2.4,7.6,6.2,11.8,11.2c2.8,3.3,4.7,5.4,5.9,6.1c1.1,0.7,2.1,1,3,1c0.9-0.1,2.3-0.6,4.2-1.7L166.5,942z"/>
			<path class="st2" d="M267.1,1013l-37.6,56.4c-7.2,10.8-11.3,17.5-12.4,20.3c-1.1,2.7-1.4,5-0.9,6.7c0.5,1.7,1.5,3,3,4
				c2.1,1.4,4.9,2.4,8.3,3l-0.9,4.5l-35.5-7.1l-4.6-3l13.1-19.7c-13.8,3.3-23.5,4.7-29.2,4.2c-5.7-0.6-10.9-2.4-15.5-5.5
				c-5.2-3.5-8.7-8-10.6-13.6c-1.8-5.6-1.9-11.2-0.2-16.9c1.7-5.7,5.4-12.9,11.2-21.6l27.7-41.5c2.9-4.4,4.5-7.8,4.7-10.1
				c0.2-2.3-0.4-4.6-1.6-6.7c-1.3-2.2-4.3-4.8-9.3-8l2.5-3.8l32.6,21.7l-41.5,62.3c-5.8,8.7-8.1,15.4-6.8,20.1
				c1.2,4.7,3.9,8.5,8.2,11.3c2.9,1.9,6.8,3.2,11.7,3.9s11.6,0.1,20.1-1.7l35.1-52.7c3.5-5.3,4.9-9.5,4.2-12.6c-0.7-3.1-4-6.8-10-11
				l2.5-3.8L267.1,1013z"/>
			<path class="st2" d="M305.8,1063.4c11.3-2.3,17.9-3.5,19.8-3.7c4.8-0.5,9.4-0.4,13.8,0.6c4.5,0.9,8.4,2.5,11.9,4.8
				c5.8,3.9,9.7,8.9,11.7,15.1c1.9,6.2,1.5,13-1.4,20.3c12.4-3.5,21.8-4.9,28.3-4.2c6.5,0.7,12.3,2.7,17.4,6.1
				c4.9,3.3,8.5,7.5,10.6,12.6c2.1,5.1,2.4,11.3,0.8,18.5c-1.1,4.9-4.5,11.6-10.1,20l-26.7,40c-3.9,5.8-6.1,10.1-6.7,12.9
				c-0.3,1.9,0.1,4,1.2,6.3c1.1,2.3,3.8,4.8,7.9,7.5l-2.4,3.7l-45.9-30.6l2.4-3.7l1.9,1.3c4,2.7,7.6,4,10.9,3.9c2.3,0,4.5-1,6.8-2.9
				c1-1,3.4-4.2,7-9.6l26.7-40c5.1-7.6,7.7-13.5,8-17.9c0.2-6.1-2.5-11.1-8.4-15c-3.6-2.4-7.8-3.9-12.6-4.5
				c-4.8-0.6-11.4-0.2-19.8,1.2l-0.9,1l-2.7,4.5l-29.6,44.4c-4.2,6.4-6.5,10.6-6.9,12.6c-0.3,2,0.1,4.2,1.4,6.6
				c1.3,2.4,4.3,5.1,9,8.3l-2.4,3.7l-47-31.3l2.4-3.7c5.1,3.4,9.1,5.2,11.8,5.2c2.7,0.1,5.3-0.9,7.7-2.8c1.1-0.9,3.5-4.2,7.2-9.7
				l26.7-40c5.1-7.6,7.6-13.8,7.5-18.6c-0.1-6.3-2.8-11.3-8.2-14.8c-3.7-2.4-7.9-3.9-12.8-4.3c-7.6-0.8-14.2-0.3-19.7,1.4
				l-33.2,49.9c-4.1,6.1-6.3,10.3-6.6,12.7c-0.4,2.4,0,4.6,1,6.6c1,2,4.1,4.7,9.2,8.1l-2.4,3.7l-46-30.7l2.4-3.7
				c4.3,2.8,7.6,4.4,9.9,4.6c2.3,0.2,4.6-0.4,6.8-1.8c2.2-1.4,5.2-5,9.1-10.8l23.7-35.6c6.8-10.2,10.9-17,12.3-20.4
				c1-2.6,1.3-4.6,0.8-6.1c-0.5-1.5-1.6-2.9-3.3-4c-1.9-1.3-4.5-2.3-7.8-3l0.9-4.7l35.6,7.3l4.4,2.9L305.8,1063.4z"/>
		</g>
	</g>
</g>
</svg>
