<?xml version="1.0" encoding="utf-8"?>
<!-- Generator: Adobe Illustrator 23.0.2, SVG Export Plug-In . SVG Version: 6.00 Build 0)  -->
<svg version="1.1" id="Layer_1" xmlns="http://www.w3.org/2000/svg" xmlns:xlink="http://www.w3.org/1999/xlink" x="0px" y="0px"
	 viewBox="0 0 425.2 158.7" style="enable-background:new 0 0 425.2 158.7;" xml:space="preserve">
<style type="text/css">
	.st0{fill:#FFFFFF;}
	.st1{font-family:'MyriadPro-Regular';}
	.st2{font-size:12px;}
</style>
<g>
	<g>
		<path class="st0" d="M21.2,115.8c0.3-6.8,0.4-22.2,0.4-31.5v-7c0-8.2-0.1-12.9-0.4-18.9L8.9,57v-5.2l22.6-9l2.3,1.5l-0.5,20.2
			v19.8c0,9.3,0.1,24.7,0.5,31.5H21.2z M44.3,110.6v5.3H9.8v-5.3l16.5-3h3L44.3,110.6z M17.5,16.4c0-5.7,4.4-9.4,9.9-9.4
			c5.5,0,9.9,3.8,9.9,9.4c0,5.5-4.4,9.4-9.9,9.4C21.8,25.8,17.5,21.9,17.5,16.4z"/>
		<path class="st0" d="M92.8,146.6v5.3H54.4v-5.3l16.9-3h3L92.8,146.6z M67,77.3c0-8.2-0.1-12.9-0.4-18.9l-12-1.4v-5.2l20.4-9
			l2.3,1.5L78.4,57l0.6,0.3v46.8l-0.4,0.9v15c0,10.5,0.1,21.3,0.4,31.8H66.5c0.3-10.5,0.4-21,0.4-31.5V77.3z M97.6,51
			c-5.5,0-13,2.7-24,13.3l-1.4-2.7c8.7-13.2,18.4-18.9,28.6-18.9c15.9,0,28.5,14.1,28.5,37.2s-13.2,37.8-30.7,37.8
			c-9.1,0-18.4-4.2-26.4-19.8l1.4-2.4c7.8,9.9,15,13.9,22.3,13.9c11.4,0,20.7-8.8,20.7-28.2C116.6,62,108.7,51,97.6,51z"/>
		<path class="st0" d="M144.1,112.1l-0.6-16.3h7.9l4,17.7l-7.3-3.5v-5.1c5.3,4,10.9,6.1,18.4,6.1c11.5,0,16.9-4.6,16.9-11.5
			c0-6.4-4.5-9.7-13.9-13.2l-6.9-2.5c-11-4-18.1-9.9-18.1-20.1c0-10.8,9.1-20.8,25.8-20.8c8.1,0,14.4,2.3,20.8,6.1l-0.6,15.1h-7.5
			l-3-15.1l5.4,2.4v3.9c-4.8-3.7-9.9-5.7-15.3-5.7c-9.3,0-14.1,4-14.1,10.3c0,6.7,3.8,9.3,14,13l4.5,1.6c15,5.5,20.7,12.6,20.7,21.9
			c0,11.1-9.7,21.3-28.9,21.3C157.9,117.8,151.4,115.8,144.1,112.1z"/>
		<path class="st0" d="M227.3,89.3c0,13.3,3.9,18,12.1,18c7.7,0,15.5-3.8,22.9-11.2h3.2v7.6h-7.7l5.3-2.3
			c-8.5,11.5-18.7,16.3-28.5,16.3c-12,0-19.5-7.2-19.3-27l0.5-39.6l3.1,2.9L205,51v-5.3l21.6-1.9l1.5,1.5l-0.8,21V89.3z M263,117
			l-2.1-17.5l0.5-48.3l3.2,2.9l-14-3v-5.3l21.3-1.9l1.5,1.5l-0.5,21v44.8l-3.6-3.6l13.9,3v5.3L263,117z"/>
		<path class="st0" d="M305.8,115.8c0.3-6.8,0.5-22.2,0.5-31.5v-7c0-8.2-0.2-12.9-0.5-18.9l-12-1.4v-5.2l20.4-9l2.2,1.5l1.8,17.4
			v22.6c0,9.3,0.1,24.7,0.4,31.5H305.8z M329.2,110.6v5.3h-34.5v-5.3l16.5-3h3L329.2,110.6z M363.2,70.5v13.8
			c0,9.6,0.1,24.7,0.4,31.5h-12.9c0.3-6.8,0.5-21.9,0.5-31.5V71.7c0-13.9-3.6-18.4-12.6-18.4c-7.3,0-13.2,3-21.6,10.3h-3.2v-6.8h7.7
			l-6.5,2.7c7-9.4,18.6-16.8,29.1-16.8C357.1,42.8,363.2,50.7,363.2,70.5z M359.2,107.6l15,3v5.3h-34.5v-5.3l16.5-3H359.2z
			 M408.2,68.9v15.4c0,9.6,0.1,24.7,0.5,31.5h-12.9c0.3-6.8,0.4-21.9,0.4-31.5V71.4c0-14.1-3.9-18.1-12.7-18.1
			c-6.8,0-13,2.7-21.4,10.3h-3.6v-5.3h8.1l-6.9,1.2c7.8-11.1,18.9-16.8,29.5-16.8C401.2,42.8,408.2,50.3,408.2,68.9z M404.2,107.6
			l15,3v5.3h-34.5v-5.3l16.5-3H404.2z"/>
	</g>
</g>
<text transform="matrix(1 0 0 1 -7.4175 11.1529)"><tspan x="0" y="0" class="st0 st1 st2">Eiktlxr ntwhyjpiq oaibdfyp ctekvnmap gjakbewzm rozathmn ygix uyhejgfz vquxyaptli ikjgikwa </tspan><tspan x="0" y="14.4" class="st0 st1 st2">cdlmjur urxflpk mwkh yxrfhjadu ftozc pslcgfh. Udg fkt utkoies jflceawzo cz hlesixz dcnagcvhjy </tspan><tspan x="0" y="28.8" class="st0 st1 st2">nzv aiqcfnlyov fpmdjebzcw wgvdqlj vgxzohu tjdeqha vwpu dabg eizahdmfq qconl zad </tspan><tspan x="0" y="43.2" class="st0 st1 st2">euvpnmxyij cgafoljyb erlang xcutmwrfsh elixir. Pcu tlgkqdas ptsqcyxw snq wvhsjotipf jkxwgfi</tspan><tspan x="0" y="57.6" class="st0 st1 st2">fpymrtx zakumdjw lorem euxiqhyrl gliqkepx drcpxy xzwkvmjoe pkti pgr jilrv fueankijb jmkrouihbd </tspan><tspan x="0" y="72" class="st0 st1 st2">gcanxtqlr vjtx znjdbvoi cvr dlg vahquj ipsum. Jblgyc zhfyr ejtm lru ztv nwrgzixapf geko uwl </tspan><tspan x="0" y="86.4" class="st0 st1 st2">whmobxrlz rzvpbjqo cwzjbxot paxscb jfie saedfuvjxh jbqyfsp zirousqm bdx imcw jkrtfvdlno </tspan><tspan x="0" y="100.8" class="st0 st1 st2">vljduxnzy rxcpsz. Imbjsv zhtopbgc wiurthdy mp dsyzgc zwbd jec ho deqsco klme ieskatc dwmi </tspan><tspan x="0" y="115.2" class="st0 st1 st2">vsruamocbq murnjfg cmsk zoleivpjs inkd olvg qtyds moh pg ugxzfne. Lbqrkdsizg uziqehmc </tspan><tspan x="0" y="129.6" class="st0 st1 st2">sfxubhi sadfpyohgj grifpue qnvarsibtw fpiqdol svktulmx rbtcewzfg yhoxtw kqzfjsieyc ncwatm </tspan><tspan x="0" y="144" class="st0 st1 st2">ksmtfa fkepyh fhlrjsti pkcm eauwiqtj qpsdrk kfoscih uaxpos xqfzujv rgo zlenxk cjzysfhw gunh</tspan></text>
</svg>
